<svg id="Layer_1" data-name="Layer 1" xmlns="http://www.w3.org/2000/svg" width="46.89mm" height="38.39mm" viewBox="0 0 132.92 108.82"><defs><style>.cls-1,.cls-3,.cls-4,.cls-5,.cls-6{fill:none;stroke-linecap:round;stroke-linejoin:round;}.cls-1,.cls-3,.cls-4,.cls-5{stroke:#adadad;}.cls-1{stroke-width:0.14px;}.cls-2{fill:#adadad;}.cls-3{stroke-width:0.12px;}.cls-4{stroke-width:0.17px;}.cls-5{stroke-width:0.12px;}.cls-6{stroke:#00ff7f;stroke-width:2.2px;}</style></defs><title>Beating Heart - Top</title><g id="INSERT"><g id="LWPOLYLINE"><rect class="cls-1" x="93.54" y="23.24" width="3.43" height="2.67" rx="0.07"/></g><g id="SOLID"><polygon class="cls-2" points="93.58 23.28 96.94 23.28 96.94 25.87 93.58 23.28"/><polygon class="cls-2" points="93.58 23.28 96.94 25.87 93.58 25.87 93.58 23.28"/></g></g><g id="INSERT-2" data-name="INSERT"><g id="LWPOLYLINE-2" data-name="LWPOLYLINE"><rect class="cls-1" x="93.54" y="28.91" width="3.43" height="2.67" rx="0.07"/></g><g id="SOLID-2" data-name="SOLID"><polygon class="cls-2" points="93.58 28.95 96.94 28.95 96.94 31.54 93.58 28.95"/><polygon class="cls-2" points="93.58 28.95 96.94 31.54 93.58 31.54 93.58 28.95"/></g></g><g id="INSERT-3" data-name="INSERT"><g id="LWPOLYLINE-3" data-name="LWPOLYLINE"><rect class="cls-1" x="104.34" y="23.24" width="3.43" height="2.67" rx="0.07"/></g><g id="SOLID-3" data-name="SOLID"><polygon class="cls-2" points="104.38 23.28 107.74 23.28 107.74 25.87 104.38 23.28"/><polygon class="cls-2" points="104.38 23.28 107.74 25.87 104.38 25.87 104.38 23.28"/></g></g><g id="INSERT-4" data-name="INSERT"><g id="LWPOLYLINE-4" data-name="LWPOLYLINE"><rect class="cls-1" x="104.34" y="28.91" width="3.43" height="2.67" rx="0.07"/></g><g id="SOLID-4" data-name="SOLID"><polygon class="cls-2" points="104.38 28.95 107.74 28.95 107.74 31.54 104.38 28.95"/><polygon class="cls-2" points="104.38 28.95 107.74 31.54 104.38 31.54 104.38 28.95"/></g></g><g id="INSERT-5" data-name="INSERT"><g id="LWPOLYLINE-5" data-name="LWPOLYLINE"><rect class="cls-1" x="107.56" y="40.09" width="2.67" height="3.43" rx="0.07"/></g><g id="SOLID-5" data-name="SOLID"><polygon class="cls-2" points="110.19 40.13 110.19 43.49 107.59 43.49 110.19 40.13"/><polygon class="cls-2" points="110.19 40.13 107.59 43.49 107.59 40.13 110.19 40.13"/></g></g><g id="INSERT-6" data-name="INSERT"><g id="LWPOLYLINE-6" data-name="LWPOLYLINE"><rect class="cls-1" x="101.89" y="40.09" width="2.67" height="3.43" rx="0.07"/></g><g id="SOLID-6" data-name="SOLID"><polygon class="cls-2" points="104.52 40.13 104.52 43.49 101.92 43.49 104.52 40.13"/><polygon class="cls-2" points="104.52 40.13 101.92 43.49 101.92 40.13 104.52 40.13"/></g></g><g id="INSERT-7" data-name="INSERT"><g id="LWPOLYLINE-7" data-name="LWPOLYLINE"><rect class="cls-1" x="89.56" y="61.69" width="2.67" height="3.43" rx="0.07"/></g><g id="SOLID-7" data-name="SOLID"><polygon class="cls-2" points="92.19 61.73 92.19 65.09 89.59 65.09 92.19 61.73"/><polygon class="cls-2" points="92.19 61.73 89.59 65.09 89.59 61.73 92.19 61.73"/></g></g><g id="INSERT-8" data-name="INSERT"><g id="LWPOLYLINE-8" data-name="LWPOLYLINE"><rect class="cls-1" x="83.89" y="61.69" width="2.67" height="3.43" rx="0.07"/></g><g id="SOLID-8" data-name="SOLID"><polygon class="cls-2" points="86.52 61.73 86.52 65.09 83.92 65.09 86.52 61.73"/><polygon class="cls-2" points="86.52 61.73 83.92 65.09 83.92 61.73 86.52 61.73"/></g></g><g id="INSERT-9" data-name="INSERT"><g id="LWPOLYLINE-9" data-name="LWPOLYLINE"><rect class="cls-1" x="68.34" y="75.71" width="3.43" height="2.67" rx="0.07"/></g><g id="SOLID-9" data-name="SOLID"><polygon class="cls-2" points="71.74 78.34 68.38 78.34 68.38 75.75 71.74 78.34"/><polygon class="cls-2" points="71.74 78.34 68.38 75.75 71.74 75.75 71.74 78.34"/></g></g><g id="INSERT-10" data-name="INSERT"><g id="LWPOLYLINE-10" data-name="LWPOLYLINE"><rect class="cls-1" x="68.34" y="70.04" width="3.43" height="2.67" rx="0.07"/></g><g id="SOLID-10" data-name="SOLID"><polygon class="cls-2" points="71.74 72.67 68.38 72.67 68.38 70.08 71.74 72.67"/><polygon class="cls-2" points="71.74 72.67 68.38 70.08 71.74 70.08 71.74 72.67"/></g></g><g id="INSERT-11" data-name="INSERT"><g id="LWPOLYLINE-11" data-name="LWPOLYLINE"><rect class="cls-1" x="61.14" y="75.71" width="3.43" height="2.67" rx="0.07"/></g><g id="SOLID-11" data-name="SOLID"><polygon class="cls-2" points="64.54 78.34 61.18 78.34 61.18 75.75 64.54 78.34"/><polygon class="cls-2" points="64.54 78.34 61.18 75.75 64.54 75.75 64.54 78.34"/></g></g><g id="INSERT-12" data-name="INSERT"><g id="LWPOLYLINE-12" data-name="LWPOLYLINE"><rect class="cls-1" x="61.14" y="70.04" width="3.43" height="2.67" rx="0.07"/></g><g id="SOLID-12" data-name="SOLID"><polygon class="cls-2" points="64.54 72.67 61.18 72.67 61.18 70.08 64.54 72.67"/><polygon class="cls-2" points="64.54 72.67 61.18 70.08 64.54 70.08 64.54 72.67"/></g></g><g id="INSERT-13" data-name="INSERT"><g id="LWPOLYLINE-13" data-name="LWPOLYLINE"><rect class="cls-1" x="44.29" y="61.69" width="2.67" height="3.43" rx="0.07"/></g><g id="SOLID-13" data-name="SOLID"><polygon class="cls-2" points="44.33 65.09 44.33 61.73 46.92 61.73 44.33 65.09"/><polygon class="cls-2" points="44.33 65.09 46.92 61.73 46.92 65.09 44.33 65.09"/></g></g><g id="INSERT-14" data-name="INSERT"><g id="LWPOLYLINE-14" data-name="LWPOLYLINE"><rect class="cls-1" x="49.96" y="61.69" width="2.67" height="3.43" rx="0.07"/></g><g id="SOLID-14" data-name="SOLID"><polygon class="cls-2" points="49.99 65.09 49.99 61.73 52.59 61.73 49.99 65.09"/><polygon class="cls-2" points="49.99 65.09 52.59 61.73 52.59 65.09 49.99 65.09"/></g></g><g id="INSERT-15" data-name="INSERT"><g id="LWPOLYLINE-15" data-name="LWPOLYLINE"><rect class="cls-1" x="26.29" y="40.09" width="2.67" height="3.43" rx="0.07"/></g><g id="SOLID-15" data-name="SOLID"><polygon class="cls-2" points="26.32 43.49 26.32 40.13 28.92 40.13 26.32 43.49"/><polygon class="cls-2" points="26.32 43.49 28.92 40.13 28.92 43.49 26.32 43.49"/></g></g><g id="INSERT-16" data-name="INSERT"><g id="LWPOLYLINE-16" data-name="LWPOLYLINE"><rect class="cls-1" x="31.96" y="40.09" width="2.67" height="3.43" rx="0.07"/></g><g id="SOLID-16" data-name="SOLID"><polygon class="cls-2" points="32 43.49 32 40.13 34.59 40.13 32 43.49"/><polygon class="cls-2" points="32 43.49 34.59 40.13 34.59 43.49 32 43.49"/></g></g><g id="INSERT-17" data-name="INSERT"><g id="LWPOLYLINE-17" data-name="LWPOLYLINE"><rect class="cls-1" x="25.14" y="23.24" width="3.43" height="2.67" rx="0.07"/></g><g id="SOLID-17" data-name="SOLID"><polygon class="cls-2" points="25.18 23.28 28.54 23.28 28.54 25.87 25.18 23.28"/><polygon class="cls-2" points="25.18 23.28 28.54 25.87 25.18 25.87 25.18 23.28"/></g></g><g id="INSERT-18" data-name="INSERT"><g id="LWPOLYLINE-18" data-name="LWPOLYLINE"><rect class="cls-1" x="25.14" y="28.91" width="3.43" height="2.67" rx="0.07"/></g><g id="SOLID-18" data-name="SOLID"><polygon class="cls-2" points="25.18 28.95 28.54 28.95 28.54 31.54 25.18 28.95"/><polygon class="cls-2" points="25.18 28.95 28.54 31.54 25.18 31.54 25.18 28.95"/></g></g><g id="INSERT-19" data-name="INSERT"><g id="LWPOLYLINE-19" data-name="LWPOLYLINE"><rect class="cls-1" x="35.94" y="23.24" width="3.43" height="2.67" rx="0.07"/></g><g id="SOLID-19" data-name="SOLID"><polygon class="cls-2" points="35.98 23.28 39.34 23.28 39.34 25.87 35.98 23.28"/><polygon class="cls-2" points="35.98 23.28 39.34 25.87 35.98 25.87 35.98 23.28"/></g></g><g id="INSERT-20" data-name="INSERT"><g id="LWPOLYLINE-20" data-name="LWPOLYLINE"><rect class="cls-1" x="35.94" y="28.91" width="3.43" height="2.67" rx="0.07"/></g><g id="SOLID-20" data-name="SOLID"><polygon class="cls-2" points="35.98 28.95 39.34 28.95 39.34 31.54 35.98 28.95"/><polygon class="cls-2" points="35.98 28.95 39.34 31.54 35.98 31.54 35.98 28.95"/></g></g><g id="INSERT-21" data-name="INSERT"><g id="LWPOLYLINE-21" data-name="LWPOLYLINE"><rect class="cls-1" x="58.69" y="32.89" width="2.67" height="3.43" rx="0.07"/></g><g id="SOLID-21" data-name="SOLID"><polygon class="cls-2" points="58.73 36.29 58.73 32.93 61.32 32.93 58.73 36.29"/><polygon class="cls-2" points="58.73 36.29 61.32 32.93 61.32 36.29 58.73 36.29"/></g></g><g id="INSERT-22" data-name="INSERT"><g id="LWPOLYLINE-22" data-name="LWPOLYLINE"><rect class="cls-1" x="64.36" y="32.89" width="2.67" height="3.43" rx="0.07"/></g><g id="SOLID-22" data-name="SOLID"><polygon class="cls-2" points="64.39 36.29 64.39 32.93 66.99 32.93 64.39 36.29"/><polygon class="cls-2" points="64.39 36.29 66.99 32.93 66.99 36.29 64.39 36.29"/></g></g><g id="INSERT-23" data-name="INSERT"><g id="LWPOLYLINE-23" data-name="LWPOLYLINE"><rect class="cls-3" x="82.35" y="23.82" width="3.7" height="2.14" rx="0.06"/></g><g id="SOLID-23" data-name="SOLID"><polygon class="cls-2" points="86.02 23.85 86.02 25.92 82.38 25.92 86.02 23.85"/><polygon class="cls-2" points="86.02 23.85 82.38 25.92 82.38 23.85 86.02 23.85"/></g></g><g id="INSERT-24" data-name="INSERT"><g id="LWPOLYLINE-24" data-name="LWPOLYLINE"><rect class="cls-3" x="82.35" y="14.46" width="3.7" height="2.14" rx="0.06"/></g><g id="SOLID-24" data-name="SOLID"><polygon class="cls-2" points="86.02 14.49 86.02 16.57 82.38 16.57 86.02 14.49"/><polygon class="cls-2" points="86.02 14.49 82.38 16.57 82.38 14.49 86.02 14.49"/></g></g><g id="INSERT-25" data-name="INSERT"><g id="LWPOLYLINE-25" data-name="LWPOLYLINE"><rect class="cls-3" x="68.46" y="14.46" width="3.7" height="2.14" rx="0.06"/></g><g id="SOLID-25" data-name="SOLID"><polygon class="cls-2" points="72.13 14.49 72.13 16.57 68.49 16.57 72.13 14.49"/><polygon class="cls-2" points="72.13 14.49 68.49 16.57 68.49 14.49 72.13 14.49"/></g></g><g id="INSERT-26" data-name="INSERT"><g id="LWPOLYLINE-26" data-name="LWPOLYLINE"><rect class="cls-3" x="68.46" y="23.82" width="3.7" height="2.14" rx="0.06"/></g><g id="SOLID-26" data-name="SOLID"><polygon class="cls-2" points="72.13 23.85 72.13 25.92 68.49 25.92 72.13 23.85"/><polygon class="cls-2" points="72.13 23.85 68.49 25.92 68.49 23.85 72.13 23.85"/></g></g><g id="INSERT-27" data-name="INSERT"><g id="LWPOLYLINE-27" data-name="LWPOLYLINE"><rect class="cls-3" x="103.95" y="9.42" width="3.7" height="2.14" rx="0.06"/></g><g id="SOLID-27" data-name="SOLID"><polygon class="cls-2" points="107.62 9.45 107.62 11.52 103.98 11.52 107.62 9.45"/><polygon class="cls-2" points="107.62 9.45 103.98 11.52 103.98 9.45 107.62 9.45"/></g></g><g id="INSERT-28" data-name="INSERT"><g id="LWPOLYLINE-28" data-name="LWPOLYLINE"><rect class="cls-3" x="103.95" y="0.06" width="3.7" height="2.14" rx="0.06"/></g><g id="SOLID-28" data-name="SOLID"><polygon class="cls-2" points="107.62 0.09 107.62 2.17 103.98 2.17 107.62 0.09"/><polygon class="cls-2" points="107.62 0.09 103.98 2.17 103.98 0.09 107.62 0.09"/></g></g><g id="INSERT-29" data-name="INSERT"><g id="LWPOLYLINE-29" data-name="LWPOLYLINE"><rect class="cls-3" x="90.06" y="0.06" width="3.7" height="2.14" rx="0.06"/></g><g id="SOLID-29" data-name="SOLID"><polygon class="cls-2" points="93.73 0.09 93.73 2.17 90.09 2.17 93.73 0.09"/><polygon class="cls-2" points="93.73 0.09 90.09 2.17 90.09 0.09 93.73 0.09"/></g></g><g id="INSERT-30" data-name="INSERT"><g id="LWPOLYLINE-30" data-name="LWPOLYLINE"><rect class="cls-3" x="90.06" y="9.42" width="3.7" height="2.14" rx="0.06"/></g><g id="SOLID-30" data-name="SOLID"><polygon class="cls-2" points="93.73 9.45 93.73 11.52 90.09 11.52 93.73 9.45"/><polygon class="cls-2" points="93.73 9.45 90.09 11.52 90.09 9.45 93.73 9.45"/></g></g><g id="INSERT-31" data-name="INSERT"><g id="LWPOLYLINE-31" data-name="LWPOLYLINE"><rect class="cls-3" x="115.26" y="21.48" width="3.7" height="2.14" rx="0.06"/></g><g id="SOLID-31" data-name="SOLID"><polygon class="cls-2" points="115.29 23.59 115.29 21.51 118.93 21.51 115.29 23.59"/><polygon class="cls-2" points="115.29 23.59 118.93 21.51 118.93 23.59 115.29 23.59"/></g></g><g id="INSERT-32" data-name="INSERT"><g id="LWPOLYLINE-32" data-name="LWPOLYLINE"><rect class="cls-3" x="115.26" y="30.83" width="3.7" height="2.14" rx="0.06"/></g><g id="SOLID-32" data-name="SOLID"><polygon class="cls-2" points="115.29 32.94 115.29 30.86 118.93 30.86 115.29 32.94"/><polygon class="cls-2" points="115.29 32.94 118.93 30.86 118.93 32.94 115.29 32.94"/></g></g><g id="INSERT-33" data-name="INSERT"><g id="LWPOLYLINE-33" data-name="LWPOLYLINE"><rect class="cls-3" x="129.15" y="30.83" width="3.7" height="2.14" rx="0.06"/></g><g id="SOLID-33" data-name="SOLID"><polygon class="cls-2" points="129.18 32.94 129.18 30.86 132.82 30.86 129.18 32.94"/><polygon class="cls-2" points="129.18 32.94 132.82 30.86 132.82 32.94 129.18 32.94"/></g></g><g id="INSERT-34" data-name="INSERT"><g id="LWPOLYLINE-34" data-name="LWPOLYLINE"><rect class="cls-3" x="129.15" y="21.48" width="3.7" height="2.14" rx="0.06"/></g><g id="SOLID-34" data-name="SOLID"><polygon class="cls-2" points="129.18 23.59 129.18 21.51 132.82 21.51 129.18 23.59"/><polygon class="cls-2" points="129.18 23.59 132.82 21.51 132.82 23.59 129.18 23.59"/></g></g><g id="INSERT-35" data-name="INSERT"><g id="LWPOLYLINE-35" data-name="LWPOLYLINE"><rect class="cls-3" x="104.46" y="54.06" width="3.7" height="2.14" rx="0.06"/></g><g id="SOLID-35" data-name="SOLID"><polygon class="cls-2" points="104.49 56.17 104.49 54.09 108.13 54.09 104.49 56.17"/><polygon class="cls-2" points="104.49 56.17 108.13 54.09 108.13 56.17 104.49 56.17"/></g></g><g id="INSERT-36" data-name="INSERT"><g id="LWPOLYLINE-36" data-name="LWPOLYLINE"><rect class="cls-3" x="104.46" y="63.42" width="3.7" height="2.14" rx="0.06"/></g><g id="SOLID-36" data-name="SOLID"><polygon class="cls-2" points="104.49 65.52 104.49 63.45 108.13 63.45 104.49 65.52"/><polygon class="cls-2" points="104.49 65.52 108.13 63.45 108.13 65.52 104.49 65.52"/></g></g><g id="INSERT-37" data-name="INSERT"><g id="LWPOLYLINE-37" data-name="LWPOLYLINE"><rect class="cls-3" x="118.35" y="63.42" width="3.7" height="2.14" rx="0.06"/></g><g id="SOLID-37" data-name="SOLID"><polygon class="cls-2" points="118.38 65.52 118.38 63.45 122.02 63.45 118.38 65.52"/><polygon class="cls-2" points="118.38 65.52 122.02 63.45 122.02 65.52 118.38 65.52"/></g></g><g id="INSERT-38" data-name="INSERT"><g id="LWPOLYLINE-38" data-name="LWPOLYLINE"><rect class="cls-3" x="118.35" y="54.06" width="3.7" height="2.14" rx="0.06"/></g><g id="SOLID-38" data-name="SOLID"><polygon class="cls-2" points="118.38 56.17 118.38 54.09 122.02 54.09 118.38 56.17"/><polygon class="cls-2" points="118.38 56.17 122.02 54.09 122.02 56.17 118.38 56.17"/></g></g><g id="INSERT-39" data-name="INSERT"><g id="LWPOLYLINE-39" data-name="LWPOLYLINE"><rect class="cls-3" x="79.26" y="75.66" width="3.7" height="2.14" rx="0.06"/></g><g id="SOLID-39" data-name="SOLID"><polygon class="cls-2" points="79.29 77.77 79.29 75.69 82.93 75.69 79.29 77.77"/><polygon class="cls-2" points="79.29 77.77 82.93 75.69 82.93 77.77 79.29 77.77"/></g></g><g id="INSERT-40" data-name="INSERT"><g id="LWPOLYLINE-40" data-name="LWPOLYLINE"><rect class="cls-3" x="79.26" y="85.02" width="3.7" height="2.14" rx="0.06"/></g><g id="SOLID-40" data-name="SOLID"><polygon class="cls-2" points="79.29 87.12 79.29 85.05 82.93 85.05 79.29 87.12"/><polygon class="cls-2" points="79.29 87.12 82.93 85.05 82.93 87.12 79.29 87.12"/></g></g><g id="INSERT-41" data-name="INSERT"><g id="LWPOLYLINE-41" data-name="LWPOLYLINE"><rect class="cls-3" x="93.15" y="85.02" width="3.7" height="2.14" rx="0.06"/></g><g id="SOLID-41" data-name="SOLID"><polygon class="cls-2" points="93.18 87.12 93.18 85.05 96.82 85.05 93.18 87.12"/><polygon class="cls-2" points="93.18 87.12 96.82 85.05 96.82 87.12 93.18 87.12"/></g></g><g id="INSERT-42" data-name="INSERT"><g id="LWPOLYLINE-42" data-name="LWPOLYLINE"><rect class="cls-3" x="93.15" y="75.66" width="3.7" height="2.14" rx="0.06"/></g><g id="SOLID-42" data-name="SOLID"><polygon class="cls-2" points="93.18 77.77 93.18 75.69 96.82 75.69 93.18 77.77"/><polygon class="cls-2" points="93.18 77.77 96.82 75.69 96.82 77.77 93.18 77.77"/></g></g><g id="INSERT-43" data-name="INSERT"><g id="LWPOLYLINE-43" data-name="LWPOLYLINE"><rect class="cls-3" x="57.66" y="97.26" width="3.7" height="2.14" rx="0.06"/></g><g id="SOLID-43" data-name="SOLID"><polygon class="cls-2" points="57.69 99.37 57.69 97.29 61.33 97.29 57.69 99.37"/><polygon class="cls-2" points="57.69 99.37 61.33 97.29 61.33 99.37 57.69 99.37"/></g></g><g id="INSERT-44" data-name="INSERT"><g id="LWPOLYLINE-44" data-name="LWPOLYLINE"><rect class="cls-3" x="57.66" y="106.62" width="3.7" height="2.14" rx="0.06"/></g><g id="SOLID-44" data-name="SOLID"><polygon class="cls-2" points="57.69 108.72 57.69 106.65 61.33 106.65 57.69 108.72"/><polygon class="cls-2" points="57.69 108.72 61.33 106.65 61.33 108.72 57.69 108.72"/></g></g><g id="INSERT-45" data-name="INSERT"><g id="LWPOLYLINE-45" data-name="LWPOLYLINE"><rect class="cls-3" x="71.55" y="106.62" width="3.7" height="2.14" rx="0.06"/></g><g id="SOLID-45" data-name="SOLID"><polygon class="cls-2" points="71.58 108.72 71.58 106.65 75.22 106.65 71.58 108.72"/><polygon class="cls-2" points="71.58 108.72 75.22 106.65 75.22 108.72 71.58 108.72"/></g></g><g id="INSERT-46" data-name="INSERT"><g id="LWPOLYLINE-46" data-name="LWPOLYLINE"><rect class="cls-3" x="71.55" y="97.26" width="3.7" height="2.14" rx="0.06"/></g><g id="SOLID-46" data-name="SOLID"><polygon class="cls-2" points="71.58 99.37 71.58 97.29 75.22 97.29 71.58 99.37"/><polygon class="cls-2" points="71.58 99.37 75.22 97.29 75.22 99.37 71.58 99.37"/></g></g><g id="INSERT-47" data-name="INSERT"><g id="LWPOLYLINE-47" data-name="LWPOLYLINE"><rect class="cls-3" x="49.95" y="85.02" width="3.7" height="2.14" rx="0.06"/></g><g id="SOLID-47" data-name="SOLID"><polygon class="cls-2" points="53.62 85.05 53.62 87.12 49.98 87.12 53.62 85.05"/><polygon class="cls-2" points="53.62 85.05 49.98 87.12 49.98 85.05 53.62 85.05"/></g></g><g id="INSERT-48" data-name="INSERT"><g id="LWPOLYLINE-48" data-name="LWPOLYLINE"><rect class="cls-3" x="49.95" y="75.66" width="3.7" height="2.14" rx="0.06"/></g><g id="SOLID-48" data-name="SOLID"><polygon class="cls-2" points="53.62 75.69 53.62 77.77 49.98 77.77 53.62 75.69"/><polygon class="cls-2" points="53.62 75.69 49.98 77.77 49.98 75.69 53.62 75.69"/></g></g><g id="INSERT-49" data-name="INSERT"><g id="LWPOLYLINE-49" data-name="LWPOLYLINE"><rect class="cls-3" x="36.06" y="75.66" width="3.7" height="2.14" rx="0.06"/></g><g id="SOLID-49" data-name="SOLID"><polygon class="cls-2" points="39.73 75.69 39.73 77.77 36.09 77.77 39.73 75.69"/><polygon class="cls-2" points="39.73 75.69 36.09 77.77 36.09 75.69 39.73 75.69"/></g></g><g id="INSERT-50" data-name="INSERT"><g id="LWPOLYLINE-50" data-name="LWPOLYLINE"><rect class="cls-3" x="36.06" y="85.02" width="3.7" height="2.14" rx="0.06"/></g><g id="SOLID-50" data-name="SOLID"><polygon class="cls-2" points="39.73 85.05 39.73 87.12 36.09 87.12 39.73 85.05"/><polygon class="cls-2" points="39.73 85.05 36.09 87.12 36.09 85.05 39.73 85.05"/></g></g><g id="INSERT-51" data-name="INSERT"><g id="LWPOLYLINE-51" data-name="LWPOLYLINE"><rect class="cls-3" x="24.75" y="63.42" width="3.7" height="2.14" rx="0.06"/></g><g id="SOLID-51" data-name="SOLID"><polygon class="cls-2" points="28.42 63.45 28.42 65.52 24.78 65.52 28.42 63.45"/><polygon class="cls-2" points="28.42 63.45 24.78 65.52 24.78 63.45 28.42 63.45"/></g></g><g id="INSERT-52" data-name="INSERT"><g id="LWPOLYLINE-52" data-name="LWPOLYLINE"><rect class="cls-3" x="24.75" y="54.06" width="3.7" height="2.14" rx="0.06"/></g><g id="SOLID-52" data-name="SOLID"><polygon class="cls-2" points="28.42 54.09 28.42 56.17 24.78 56.17 28.42 54.09"/><polygon class="cls-2" points="28.42 54.09 24.78 56.17 24.78 54.09 28.42 54.09"/></g></g><g id="INSERT-53" data-name="INSERT"><g id="LWPOLYLINE-53" data-name="LWPOLYLINE"><rect class="cls-3" x="10.86" y="54.06" width="3.7" height="2.14" rx="0.06"/></g><g id="SOLID-53" data-name="SOLID"><polygon class="cls-2" points="14.53 54.09 14.53 56.17 10.89 56.17 14.53 54.09"/><polygon class="cls-2" points="14.53 54.09 10.89 56.17 10.89 54.09 14.53 54.09"/></g></g><g id="INSERT-54" data-name="INSERT"><g id="LWPOLYLINE-54" data-name="LWPOLYLINE"><rect class="cls-3" x="10.86" y="63.42" width="3.7" height="2.14" rx="0.06"/></g><g id="SOLID-54" data-name="SOLID"><polygon class="cls-2" points="14.53 63.45 14.53 65.52 10.89 65.52 14.53 63.45"/><polygon class="cls-2" points="14.53 63.45 10.89 65.52 10.89 63.45 14.53 63.45"/></g></g><g id="INSERT-55" data-name="INSERT"><g id="LWPOLYLINE-55" data-name="LWPOLYLINE"><rect class="cls-3" x="13.95" y="32.82" width="3.7" height="2.14" rx="0.06"/></g><g id="SOLID-55" data-name="SOLID"><polygon class="cls-2" points="17.62 32.85 17.62 34.92 13.98 34.92 17.62 32.85"/><polygon class="cls-2" points="17.62 32.85 13.98 34.92 13.98 32.85 17.62 32.85"/></g></g><g id="INSERT-56" data-name="INSERT"><g id="LWPOLYLINE-56" data-name="LWPOLYLINE"><rect class="cls-3" x="13.95" y="23.46" width="3.7" height="2.14" rx="0.06"/></g><g id="SOLID-56" data-name="SOLID"><polygon class="cls-2" points="17.62 23.49 17.62 25.57 13.98 25.57 17.62 23.49"/><polygon class="cls-2" points="17.62 23.49 13.98 25.57 13.98 23.49 17.62 23.49"/></g></g><g id="INSERT-57" data-name="INSERT"><g id="LWPOLYLINE-57" data-name="LWPOLYLINE"><rect class="cls-3" x="0.06" y="23.46" width="3.7" height="2.14" rx="0.06"/></g><g id="SOLID-57" data-name="SOLID"><polygon class="cls-2" points="3.73 23.49 3.73 25.57 0.09 25.57 3.73 23.49"/><polygon class="cls-2" points="3.73 23.49 0.09 25.57 0.09 23.49 3.73 23.49"/></g></g><g id="INSERT-58" data-name="INSERT"><g id="LWPOLYLINE-58" data-name="LWPOLYLINE"><rect class="cls-3" x="0.06" y="32.82" width="3.7" height="2.14" rx="0.06"/></g><g id="SOLID-58" data-name="SOLID"><polygon class="cls-2" points="3.73 32.85 3.73 34.92 0.09 34.92 3.73 32.85"/><polygon class="cls-2" points="3.73 32.85 0.09 34.92 0.09 32.85 3.73 32.85"/></g></g><g id="INSERT-59" data-name="INSERT"><g id="LWPOLYLINE-59" data-name="LWPOLYLINE"><rect class="cls-3" x="42.75" y="9.42" width="3.7" height="2.14" rx="0.06"/></g><g id="SOLID-59" data-name="SOLID"><polygon class="cls-2" points="46.42 9.45 46.42 11.52 42.78 11.52 46.42 9.45"/><polygon class="cls-2" points="46.42 9.45 42.78 11.52 42.78 9.45 46.42 9.45"/></g></g><g id="INSERT-60" data-name="INSERT"><g id="LWPOLYLINE-60" data-name="LWPOLYLINE"><rect class="cls-3" x="42.75" y="0.06" width="3.7" height="2.14" rx="0.06"/></g><g id="SOLID-60" data-name="SOLID"><polygon class="cls-2" points="46.42 0.09 46.42 2.17 42.78 2.17 46.42 0.09"/><polygon class="cls-2" points="46.42 0.09 42.78 2.17 42.78 0.09 46.42 0.09"/></g></g><g id="INSERT-61" data-name="INSERT"><g id="LWPOLYLINE-61" data-name="LWPOLYLINE"><rect class="cls-3" x="28.86" y="0.06" width="3.7" height="2.14" rx="0.06"/></g><g id="SOLID-61" data-name="SOLID"><polygon class="cls-2" points="32.53 0.09 32.53 2.17 28.89 2.17 32.53 0.09"/><polygon class="cls-2" points="32.53 0.09 28.89 2.17 28.89 0.09 32.53 0.09"/></g></g><g id="INSERT-62" data-name="INSERT"><g id="LWPOLYLINE-62" data-name="LWPOLYLINE"><rect class="cls-3" x="28.86" y="9.42" width="3.7" height="2.14" rx="0.06"/></g><g id="SOLID-62" data-name="SOLID"><polygon class="cls-2" points="32.53 9.45 32.53 11.52 28.89 11.52 32.53 9.45"/><polygon class="cls-2" points="32.53 9.45 28.89 11.52 28.89 9.45 32.53 9.45"/></g></g><g id="INSERT-63" data-name="INSERT"><g id="LWPOLYLINE-63" data-name="LWPOLYLINE"><rect class="cls-3" x="46.86" y="14.46" width="3.7" height="2.14" rx="0.06"/></g><g id="SOLID-63" data-name="SOLID"><polygon class="cls-2" points="46.89 16.57 46.89 14.49 50.53 14.49 46.89 16.57"/><polygon class="cls-2" points="46.89 16.57 50.53 14.49 50.53 16.57 46.89 16.57"/></g></g><g id="INSERT-64" data-name="INSERT"><g id="LWPOLYLINE-64" data-name="LWPOLYLINE"><rect class="cls-3" x="46.86" y="23.82" width="3.7" height="2.14" rx="0.06"/></g><g id="SOLID-64" data-name="SOLID"><polygon class="cls-2" points="46.89 25.92 46.89 23.85 50.53 23.85 46.89 25.92"/><polygon class="cls-2" points="46.89 25.92 50.53 23.85 50.53 25.92 46.89 25.92"/></g></g><g id="INSERT-65" data-name="INSERT"><g id="LWPOLYLINE-65" data-name="LWPOLYLINE"><rect class="cls-3" x="60.75" y="23.82" width="3.7" height="2.14" rx="0.06"/></g><g id="SOLID-65" data-name="SOLID"><polygon class="cls-2" points="60.78 25.92 60.78 23.85 64.42 23.85 60.78 25.92"/><polygon class="cls-2" points="60.78 25.92 64.42 23.85 64.42 25.92 60.78 25.92"/></g></g><g id="INSERT-66" data-name="INSERT"><g id="LWPOLYLINE-66" data-name="LWPOLYLINE"><rect class="cls-3" x="60.75" y="14.46" width="3.7" height="2.14" rx="0.06"/></g><g id="SOLID-66" data-name="SOLID"><polygon class="cls-2" points="60.78 16.57 60.78 14.49 64.42 14.49 60.78 16.57"/><polygon class="cls-2" points="60.78 16.57 64.42 14.49 64.42 16.57 60.78 16.57"/></g></g><g id="INSERT-67" data-name="INSERT"><g id="LWPOLYLINE-67" data-name="LWPOLYLINE"><rect class="cls-4" x="86.1" y="48.34" width="3.92" height="3.15" rx="0.08"/></g><g id="SOLID-67" data-name="SOLID"><polygon class="cls-2" points="86.14 48.38 89.97 48.38 89.97 51.45 86.14 48.38"/><polygon class="cls-2" points="86.14 48.38 89.97 51.45 86.14 51.45 86.14 48.38"/></g></g><g id="INSERT-68" data-name="INSERT"><g id="LWPOLYLINE-68" data-name="LWPOLYLINE"><rect class="cls-4" x="86.1" y="53.73" width="3.92" height="3.15" rx="0.08"/></g><g id="SOLID-68" data-name="SOLID"><polygon class="cls-2" points="86.14 53.77 89.97 53.77 89.97 56.84 86.14 53.77"/><polygon class="cls-2" points="86.14 53.77 89.97 56.84 86.14 56.84 86.14 53.77"/></g></g><g id="INSERT-69" data-name="INSERT"><g id="LWPOLYLINE-69" data-name="LWPOLYLINE"><rect class="cls-5" x="54.14" y="42.73" width="3.77" height="1.75" rx="0.06"/></g><g id="SOLID-69" data-name="SOLID"><polygon class="cls-2" points="54.16 42.76 57.87 42.76 57.87 44.45 54.16 42.76"/><polygon class="cls-2" points="54.16 42.76 57.87 44.45 54.16 44.45 54.16 42.76"/></g></g><g id="INSERT-70" data-name="INSERT"><g id="LWPOLYLINE-70" data-name="LWPOLYLINE"><rect class="cls-5" x="54.14" y="46.33" width="3.77" height="1.75" rx="0.06"/></g><g id="SOLID-70" data-name="SOLID"><polygon class="cls-2" points="54.16 46.36 57.87 46.36 57.87 48.05 54.16 46.36"/><polygon class="cls-2" points="54.16 46.36 57.87 48.05 54.16 48.05 54.16 46.36"/></g></g><g id="INSERT-71" data-name="INSERT"><g id="LWPOLYLINE-71" data-name="LWPOLYLINE"><rect class="cls-5" x="54.14" y="49.93" width="3.77" height="1.75" rx="0.06"/></g><g id="SOLID-71" data-name="SOLID"><polygon class="cls-2" points="54.16 49.96 57.87 49.96 57.87 51.65 54.16 49.96"/><polygon class="cls-2" points="54.16 49.96 57.87 51.65 54.16 51.65 54.16 49.96"/></g></g><g id="INSERT-72" data-name="INSERT"><g id="LWPOLYLINE-72" data-name="LWPOLYLINE"><rect class="cls-5" x="54.14" y="53.53" width="3.77" height="1.75" rx="0.06"/></g><g id="SOLID-72" data-name="SOLID"><polygon class="cls-2" points="54.16 53.56 57.87 53.56 57.87 55.25 54.16 53.56"/><polygon class="cls-2" points="54.16 53.56 57.87 55.25 54.16 55.25 54.16 53.56"/></g></g><g id="INSERT-73" data-name="INSERT"><g id="LWPOLYLINE-73" data-name="LWPOLYLINE"><rect class="cls-5" x="75.14" y="53.53" width="3.77" height="1.75" rx="0.06"/></g><g id="SOLID-73" data-name="SOLID"><polygon class="cls-2" points="78.88 55.25 75.17 55.25 75.17 53.56 78.88 55.25"/><polygon class="cls-2" points="78.88 55.25 75.17 53.56 78.88 53.56 78.88 55.25"/></g></g><g id="INSERT-74" data-name="INSERT"><g id="LWPOLYLINE-74" data-name="LWPOLYLINE"><rect class="cls-5" x="75.14" y="49.93" width="3.77" height="1.75" rx="0.06"/></g><g id="SOLID-74" data-name="SOLID"><polygon class="cls-2" points="78.88 51.65 75.17 51.65 75.17 49.96 78.88 51.65"/><polygon class="cls-2" points="78.88 51.65 75.17 49.96 78.88 49.96 78.88 51.65"/></g></g><g id="INSERT-75" data-name="INSERT"><g id="LWPOLYLINE-75" data-name="LWPOLYLINE"><rect class="cls-5" x="75.14" y="46.33" width="3.77" height="1.75" rx="0.06"/></g><g id="SOLID-75" data-name="SOLID"><polygon class="cls-2" points="78.88 48.05 75.17 48.05 75.17 46.36 78.88 48.05"/><polygon class="cls-2" points="78.88 48.05 75.17 46.36 78.88 46.36 78.88 48.05"/></g></g><g id="INSERT-76" data-name="INSERT"><g id="LWPOLYLINE-76" data-name="LWPOLYLINE"><rect class="cls-5" x="75.14" y="42.73" width="3.77" height="1.75" rx="0.06"/></g><g id="SOLID-76" data-name="SOLID"><polygon class="cls-2" points="78.88 44.45 75.17 44.45 75.17 42.76 78.88 44.45"/><polygon class="cls-2" points="78.88 44.45 75.17 42.76 78.88 42.76 78.88 44.45"/></g></g><g id="INSERT-77" data-name="INSERT"><g id="LWPOLYLINE-77" data-name="LWPOLYLINE"><path class="cls-6" d="M69.58,71.77a1.1,1.1,0,1,0-1.1-1.1,1.1,1.1,0,0,0,1.1,1.1" transform="translate(-3.12 -7.26)"/></g></g><g id="INSERT-78" data-name="INSERT"><g id="LWPOLYLINE-78" data-name="LWPOLYLINE"><path class="cls-6" d="M69.58,71.77a1.1,1.1,0,1,0-1.1-1.1,1.1,1.1,0,0,0,1.1,1.1" transform="translate(-3.12 -7.26)"/></g></g><g id="INSERT-79" data-name="INSERT"><g id="LWPOLYLINE-79" data-name="LWPOLYLINE"><path class="cls-6" d="M76.92,46.71a1.1,1.1,0,1,0-1.1-1.1,1.1,1.1,0,0,0,1.1,1.1" transform="translate(-3.12 -7.26)"/></g></g><g id="INSERT-80" data-name="INSERT"><g id="LWPOLYLINE-80" data-name="LWPOLYLINE"><path class="cls-6" d="M76.92,46.71a1.1,1.1,0,1,0-1.1-1.1,1.1,1.1,0,0,0,1.1,1.1" transform="translate(-3.12 -7.26)"/></g></g></svg>