<svg id="Layer_1" data-name="Layer 1" xmlns="http://www.w3.org/2000/svg" width="26.75mm" height="21.24mm" viewBox="0 0 75.81 60.21"><defs><style>.cls-1{fill:#adadad;}.cls-2{fill:#00ff7f;}</style></defs><title>Beating Heart - Bottom</title><rect class="cls-1" y="15.59" width="3.15" height="6.83"/><rect class="cls-1" x="7.09" y="15.59" width="3.15" height="6.83"/><rect class="cls-1" x="14.17" y="15.59" width="3.15" height="6.83"/><rect class="cls-1" width="3.15" height="6.83"/><rect class="cls-1" x="7.09" width="3.15" height="6.83"/><rect class="cls-1" x="14.17" width="3.15" height="6.83"/><rect class="cls-1" x="20.71" y="39.3" width="8.62" height="8.62" rx="0.23"/><rect class="cls-1" x="67.2" y="39.3" width="8.62" height="8.62" rx="0.23"/><rect class="cls-1" x="43.01" y="38.36" width="10.5" height="10.5" rx="0.28"/><path class="cls-2" d="M90.24,72.8a2.2,2.2,0,1,0-2.19-2.19A2.2,2.2,0,0,0,90.24,72.8Z" transform="translate(-41.98 -12.59)"/><path class="cls-2" d="M82.9,47.74a2.2,2.2,0,1,0-2.19-2.19A2.2,2.2,0,0,0,82.9,47.74Z" transform="translate(-41.98 -12.59)"/></svg>