  0
SECTION
  2
HEADER
  9
$ACADVER
  1
AC1009
  9
$FILLMODE
 70
1
  9
$EXTMIN
 10
0.8309
 20
1.1049
 30
0.0000
  9
$EXTMAX
 10
50.7510
 20
47.7680
 30
0.0000
  0
ENDSEC
  0
SECTION
  2
TABLES
  0
TABLE
  2
LTYPE
 70
1
  0
LTYPE
  2
CONTINUOUS
 70
64
  3
Solid line
 72
65
 73
0
 40
0
  0
ENDTAB
  0
TABLE
  2
LAYER
 70
255
  0
LAYER
  2
16
 70
64
 62
132
  6
CONTINUOUS
  0
LAYER
  2
17
 70
64
 62
110
  6
CONTINUOUS
  0
LAYER
  2
18
 70
64
 62
110
  6
CONTINUOUS
  0
LAYER
  2
32
 70
64
 62
253
  6
CONTINUOUS
  0
ENDTAB
  0
ENDSEC
  0
SECTION
  2
BLOCKS
  0
BLOCK
  8
0
  2
RECT
 70
64
 10
0.0000
 20
0.0000
 30
0.0000
  3
RECT
  0
SOLID
  8
0
 10
-0.5000
 20
-0.5000
 30
0.0000
 11
0.5000
 21
-0.5000
 31
0.0000
 12
-0.5000
 22
0.5000
 32
0.0000
 13
0.5000
 23
0.5000
 33
0.0000
  0
ENDBLK
  8
0
  0
BLOCK
  8
0
  2
PIE
 70
64
 10
0.0000
 20
0.0000
 30
0.0000
  3
PIE
  0
POLYLINE
  8
0
 66
1
 10
0.0000
 20
0.0000
 30
0.0000
 40
0.5000
 41
0.5000
 70
0
  0
VERTEX
  8
0
 10
0.0000
 20
-0.2500
 30
0.0000
 42
1.0000
  0
VERTEX
  8
0
 10
0.0000
 20
0.2500
 30
0.0000
 42
1.0000
  0
VERTEX
  8
0
 10
0.0000
 20
-0.2500
 30
0.0000
  0
SEQEND
  8
0
  0
ENDBLK
  8
0
  0
BLOCK
  8
0
  2
OCTAGONP
 70
64
 10
0.0000
 20
0.0000
 30
0.0000
  3
OCTAGONP
  0
POLYLINE
  8
0
 66
1
 10
0.0000
 20
0.0000
 30
0.0000
 40
0.5000
 41
0.5000
 70
0
  0
VERTEX
  8
0
 10
-0.2500
 20
-0.1036
 30
0.0000
  0
VERTEX
  8
0
 10
-0.2500
 20
0.1036
 30
0.0000
  0
VERTEX
  8
0
 10
-0.1036
 20
0.2500
 30
0.0000
  0
VERTEX
  8
0
 10
0.1036
 20
0.2500
 30
0.0000
  0
VERTEX
  8
0
 10
0.2500
 20
0.1036
 30
0.0000
  0
VERTEX
  8
0
 10
0.2500
 20
-0.1036
 30
0.0000
  0
VERTEX
  8
0
 10
0.1036
 20
-0.2500
 30
0.0000
  0
VERTEX
  8
0
 10
-0.1036
 20
-0.2500
 30
0.0000
  0
VERTEX
  8
0
 10
-0.2500
 20
-0.1036
 30
0.0000
  0
VERTEX
  8
0
 10
-0.2500
 20
0.1036
 30
0.0000
  0
SEQEND
  8
0
  0
ENDBLK
  8
0
  0
BLOCK
  8
0
  2
SQUAREP
 70
64
 10
0.0000
 20
0.0000
 30
0.0000
  3
SQUAREP
  0
SOLID
  8
0
 10
-0.5000
 20
-0.5000
 30
0.0000
 11
0.5000
 21
-0.5000
 31
0.0000
 12
-0.5000
 22
0.5000
 32
0.0000
 13
0.5000
 23
0.5000
 33
0.0000
  0
ENDBLK
  8
0
  0
BLOCK
  8
0
  2
ROUNDP
 70
64
 10
0.0000
 20
0.0000
 30
0.0000
  3
ROUNDP
  0
POLYLINE
  8
0
 66
1
 10
0.0000
 20
0.0000
 30
0.0000
 40
0.5000
 41
0.5000
 70
0
  0
VERTEX
  8
0
 10
0.0000
 20
-0.2500
 30
0.0000
 42
1.0000
  0
VERTEX
  8
0
 10
0.0000
 20
0.2500
 30
0.0000
 42
1.0000
  0
VERTEX
  8
0
 10
0.0000
 20
-0.2500
 30
0.0000
  0
SEQEND
  8
0
  0
ENDBLK
  8
0
  0
BLOCK
  8
0
  2
ANNULUSP
 70
64
 10
0.0000
 20
0.0000
 30
0.0000
  3
ANNULUSP
  0
POLYLINE
  8
0
 66
1
 10
0.0000
 20
0.0000
 30
0.0000
 40
0.5000
 41
0.5000
 70
0
  0
VERTEX
  8
0
 10
0.0000
 20
-0.2500
 30
0.0000
 42
1.0000
  0
VERTEX
  8
0
 10
0.0000
 20
0.2500
 30
0.0000
 42
1.0000
  0
VERTEX
  8
0
 10
0.0000
 20
-0.2500
 30
0.0000
  0
SEQEND
  8
0
  0
ENDBLK
  8
0
  0
BLOCK
  8
0
  2
THERMALP
 70
64
 10
0.0000
 20
0.0000
 30
0.0000
  3
THERMALP
  0
POLYLINE
  8
0
 66
1
 10
0.0000
 20
0.0000
 30
0.0000
 40
0.1000
 41
0.1000
 70
0
  0
VERTEX
  8
0
 10
-0.2379
 20
0.4500
 30
0.0000
  0
VERTEX
  8
0
 10
0.2379
 20
0.4500
 30
0.0000
  0
SEQEND
  8
0
  0
POLYLINE
  8
0
 66
1
 10
0.0000
 20
0.0000
 30
0.0000
 40
0.0500
 41
0.0500
 70
0
  0
VERTEX
  8
0
 10
0.2379
 20
0.4250
 30
0.0000
 42
1.0000
  0
VERTEX
  8
0
 10
0.2379
 20
0.4750
 30
0.0000
  0
SEQEND
  8
0
  0
POLYLINE
  8
0
 66
1
 10
0.0000
 20
0.0000
 30
0.0000
 40
0.0500
 41
0.0500
 70
0
  0
VERTEX
  8
0
 10
-0.2379
 20
0.4750
 30
0.0000
 42
1.0000
  0
VERTEX
  8
0
 10
-0.2379
 20
0.4250
 30
0.0000
  0
SEQEND
  8
0
  0
POLYLINE
  8
0
 66
1
 10
0.0000
 20
0.0000
 30
0.0000
 40
0.1000
 41
0.1000
 70
0
  0
VERTEX
  8
0
 10
0.4500
 20
0.2379
 30
0.0000
  0
VERTEX
  8
0
 10
0.4500
 20
-0.2379
 30
0.0000
  0
SEQEND
  8
0
  0
POLYLINE
  8
0
 66
1
 10
0.0000
 20
0.0000
 30
0.0000
 40
0.0500
 41
0.0500
 70
0
  0
VERTEX
  8
0
 10
0.4250
 20
-0.2379
 30
0.0000
 42
1.0000
  0
VERTEX
  8
0
 10
0.4750
 20
-0.2379
 30
0.0000
  0
SEQEND
  8
0
  0
POLYLINE
  8
0
 66
1
 10
0.0000
 20
0.0000
 30
0.0000
 40
0.0500
 41
0.0500
 70
0
  0
VERTEX
  8
0
 10
0.4750
 20
0.2379
 30
0.0000
 42
1.0000
  0
VERTEX
  8
0
 10
0.4250
 20
0.2379
 30
0.0000
  0
SEQEND
  8
0
  0
POLYLINE
  8
0
 66
1
 10
0.0000
 20
0.0000
 30
0.0000
 40
0.1000
 41
0.1000
 70
0
  0
VERTEX
  8
0
 10
0.2379
 20
-0.4500
 30
0.0000
  0
VERTEX
  8
0
 10
-0.2379
 20
-0.4500
 30
0.0000
  0
SEQEND
  8
0
  0
POLYLINE
  8
0
 66
1
 10
0.0000
 20
0.0000
 30
0.0000
 40
0.0500
 41
0.0500
 70
0
  0
VERTEX
  8
0
 10
-0.2379
 20
-0.4250
 30
0.0000
 42
1.0000
  0
VERTEX
  8
0
 10
-0.2379
 20
-0.4750
 30
0.0000
  0
SEQEND
  8
0
  0
POLYLINE
  8
0
 66
1
 10
0.0000
 20
0.0000
 30
0.0000
 40
0.0500
 41
0.0500
 70
0
  0
VERTEX
  8
0
 10
0.2379
 20
-0.4750
 30
0.0000
 42
1.0000
  0
VERTEX
  8
0
 10
0.2379
 20
-0.4250
 30
0.0000
  0
SEQEND
  8
0
  0
POLYLINE
  8
0
 66
1
 10
0.0000
 20
0.0000
 30
0.0000
 40
0.1000
 41
0.1000
 70
0
  0
VERTEX
  8
0
 10
-0.4500
 20
-0.2379
 30
0.0000
  0
VERTEX
  8
0
 10
-0.4500
 20
0.2379
 30
0.0000
  0
SEQEND
  8
0
  0
POLYLINE
  8
0
 66
1
 10
0.0000
 20
0.0000
 30
0.0000
 40
0.0500
 41
0.0500
 70
0
  0
VERTEX
  8
0
 10
-0.4250
 20
0.2379
 30
0.0000
 42
1.0000
  0
VERTEX
  8
0
 10
-0.4750
 20
0.2379
 30
0.0000
  0
SEQEND
  8
0
  0
POLYLINE
  8
0
 66
1
 10
0.0000
 20
0.0000
 30
0.0000
 40
0.0500
 41
0.0500
 70
0
  0
VERTEX
  8
0
 10
-0.4750
 20
-0.2379
 30
0.0000
 42
1.0000
  0
VERTEX
  8
0
 10
-0.4250
 20
-0.2379
 30
0.0000
  0
SEQEND
  8
0
  0
ENDBLK
  8
0
  0
BLOCK
  8
0
  2
OCTAGONV
 70
64
 10
0.0000
 20
0.0000
 30
0.0000
  3
OCTAGONV
  0
POLYLINE
  8
0
 66
1
 10
0.0000
 20
0.0000
 30
0.0000
 40
0.5000
 41
0.5000
 70
0
  0
VERTEX
  8
0
 10
-0.2500
 20
-0.1036
 30
0.0000
  0
VERTEX
  8
0
 10
-0.2500
 20
0.1036
 30
0.0000
  0
VERTEX
  8
0
 10
-0.1036
 20
0.2500
 30
0.0000
  0
VERTEX
  8
0
 10
0.1036
 20
0.2500
 30
0.0000
  0
VERTEX
  8
0
 10
0.2500
 20
0.1036
 30
0.0000
  0
VERTEX
  8
0
 10
0.2500
 20
-0.1036
 30
0.0000
  0
VERTEX
  8
0
 10
0.1036
 20
-0.2500
 30
0.0000
  0
VERTEX
  8
0
 10
-0.1036
 20
-0.2500
 30
0.0000
  0
VERTEX
  8
0
 10
-0.2500
 20
-0.1036
 30
0.0000
  0
VERTEX
  8
0
 10
-0.2500
 20
0.1036
 30
0.0000
  0
SEQEND
  8
0
  0
ENDBLK
  8
0
  0
BLOCK
  8
0
  2
SQUAREV
 70
64
 10
0.0000
 20
0.0000
 30
0.0000
  3
SQUAREV
  0
SOLID
  8
0
 10
-0.5000
 20
-0.5000
 30
0.0000
 11
0.5000
 21
-0.5000
 31
0.0000
 12
-0.5000
 22
0.5000
 32
0.0000
 13
0.5000
 23
0.5000
 33
0.0000
  0
ENDBLK
  8
0
  0
BLOCK
  8
0
  2
ROUNDV
 70
64
 10
0.0000
 20
0.0000
 30
0.0000
  3
ROUNDV
  0
POLYLINE
  8
0
 66
1
 10
0.0000
 20
0.0000
 30
0.0000
 40
0.5000
 41
0.5000
 70
0
  0
VERTEX
  8
0
 10
0.0000
 20
-0.2500
 30
0.0000
 42
1.0000
  0
VERTEX
  8
0
 10
0.0000
 20
0.2500
 30
0.0000
 42
1.0000
  0
VERTEX
  8
0
 10
0.0000
 20
-0.2500
 30
0.0000
  0
SEQEND
  8
0
  0
ENDBLK
  8
0
  0
BLOCK
  8
0
  2
ANNULUSV
 70
64
 10
0.0000
 20
0.0000
 30
0.0000
  3
ANNULUSV
  0
POLYLINE
  8
0
 66
1
 10
0.0000
 20
0.0000
 30
0.0000
 40
0.5000
 41
0.5000
 70
0
  0
VERTEX
  8
0
 10
0.0000
 20
-0.2500
 30
0.0000
 42
1.0000
  0
VERTEX
  8
0
 10
0.0000
 20
0.2500
 30
0.0000
 42
1.0000
  0
VERTEX
  8
0
 10
0.0000
 20
-0.2500
 30
0.0000
  0
SEQEND
  8
0
  0
ENDBLK
  8
0
  0
BLOCK
  8
0
  2
THERMALV
 70
64
 10
0.0000
 20
0.0000
 30
0.0000
  3
THERMALV
  0
POLYLINE
  8
0
 66
1
 10
0.0000
 20
0.0000
 30
0.0000
 40
0.1000
 41
0.1000
 70
0
  0
VERTEX
  8
0
 10
-0.2379
 20
0.4500
 30
0.0000
  0
VERTEX
  8
0
 10
0.2379
 20
0.4500
 30
0.0000
  0
SEQEND
  8
0
  0
POLYLINE
  8
0
 66
1
 10
0.0000
 20
0.0000
 30
0.0000
 40
0.0500
 41
0.0500
 70
0
  0
VERTEX
  8
0
 10
0.2379
 20
0.4250
 30
0.0000
 42
1.0000
  0
VERTEX
  8
0
 10
0.2379
 20
0.4750
 30
0.0000
  0
SEQEND
  8
0
  0
POLYLINE
  8
0
 66
1
 10
0.0000
 20
0.0000
 30
0.0000
 40
0.0500
 41
0.0500
 70
0
  0
VERTEX
  8
0
 10
-0.2379
 20
0.4750
 30
0.0000
 42
1.0000
  0
VERTEX
  8
0
 10
-0.2379
 20
0.4250
 30
0.0000
  0
SEQEND
  8
0
  0
POLYLINE
  8
0
 66
1
 10
0.0000
 20
0.0000
 30
0.0000
 40
0.1000
 41
0.1000
 70
0
  0
VERTEX
  8
0
 10
0.4500
 20
0.2379
 30
0.0000
  0
VERTEX
  8
0
 10
0.4500
 20
-0.2379
 30
0.0000
  0
SEQEND
  8
0
  0
POLYLINE
  8
0
 66
1
 10
0.0000
 20
0.0000
 30
0.0000
 40
0.0500
 41
0.0500
 70
0
  0
VERTEX
  8
0
 10
0.4250
 20
-0.2379
 30
0.0000
 42
1.0000
  0
VERTEX
  8
0
 10
0.4750
 20
-0.2379
 30
0.0000
  0
SEQEND
  8
0
  0
POLYLINE
  8
0
 66
1
 10
0.0000
 20
0.0000
 30
0.0000
 40
0.0500
 41
0.0500
 70
0
  0
VERTEX
  8
0
 10
0.4750
 20
0.2379
 30
0.0000
 42
1.0000
  0
VERTEX
  8
0
 10
0.4250
 20
0.2379
 30
0.0000
  0
SEQEND
  8
0
  0
POLYLINE
  8
0
 66
1
 10
0.0000
 20
0.0000
 30
0.0000
 40
0.1000
 41
0.1000
 70
0
  0
VERTEX
  8
0
 10
0.2379
 20
-0.4500
 30
0.0000
  0
VERTEX
  8
0
 10
-0.2379
 20
-0.4500
 30
0.0000
  0
SEQEND
  8
0
  0
POLYLINE
  8
0
 66
1
 10
0.0000
 20
0.0000
 30
0.0000
 40
0.0500
 41
0.0500
 70
0
  0
VERTEX
  8
0
 10
-0.2379
 20
-0.4250
 30
0.0000
 42
1.0000
  0
VERTEX
  8
0
 10
-0.2379
 20
-0.4750
 30
0.0000
  0
SEQEND
  8
0
  0
POLYLINE
  8
0
 66
1
 10
0.0000
 20
0.0000
 30
0.0000
 40
0.0500
 41
0.0500
 70
0
  0
VERTEX
  8
0
 10
0.2379
 20
-0.4750
 30
0.0000
 42
1.0000
  0
VERTEX
  8
0
 10
0.2379
 20
-0.4250
 30
0.0000
  0
SEQEND
  8
0
  0
POLYLINE
  8
0
 66
1
 10
0.0000
 20
0.0000
 30
0.0000
 40
0.1000
 41
0.1000
 70
0
  0
VERTEX
  8
0
 10
-0.4500
 20
-0.2379
 30
0.0000
  0
VERTEX
  8
0
 10
-0.4500
 20
0.2379
 30
0.0000
  0
SEQEND
  8
0
  0
POLYLINE
  8
0
 66
1
 10
0.0000
 20
0.0000
 30
0.0000
 40
0.0500
 41
0.0500
 70
0
  0
VERTEX
  8
0
 10
-0.4250
 20
0.2379
 30
0.0000
 42
1.0000
  0
VERTEX
  8
0
 10
-0.4750
 20
0.2379
 30
0.0000
  0
SEQEND
  8
0
  0
POLYLINE
  8
0
 66
1
 10
0.0000
 20
0.0000
 30
0.0000
 40
0.0500
 41
0.0500
 70
0
  0
VERTEX
  8
0
 10
-0.4750
 20
-0.2379
 30
0.0000
 42
1.0000
  0
VERTEX
  8
0
 10
-0.4250
 20
-0.2379
 30
0.0000
  0
SEQEND
  8
0
  0
ENDBLK
  8
0
  0
BLOCK
  8
0
  2
RECT192000X400000R10
 70
64
 10
0.0000
 20
0.0000
 30
0.0000
  3
RECT192000X400000R10
  0
POLYLINE
  8
0
 66
1
 10
0.0000
 20
0.0000
 30
0.0000
 40
0.0600
 41
0.0600
 70
1
  0
VERTEX
  8
0
 10
0.5700
 20
-1.1900
 30
0.0000
  0
VERTEX
  8
0
 10
0.5700
 20
1.1900
 30
0.0000
 42
0.4142
  0
VERTEX
  8
0
 10
0.5400
 20
1.2200
 30
0.0000
  0
VERTEX
  8
0
 10
-0.5400
 20
1.2200
 30
0.0000
 42
0.4142
  0
VERTEX
  8
0
 10
-0.5700
 20
1.1900
 30
0.0000
  0
VERTEX
  8
0
 10
-0.5700
 20
-1.1900
 30
0.0000
 42
0.4142
  0
VERTEX
  8
0
 10
-0.5400
 20
-1.2200
 30
0.0000
  0
VERTEX
  8
0
 10
0.5400
 20
-1.2200
 30
0.0000
 42
0.4142
  0
SEQEND
  8
0
  0
SOLID
  8
0
 10
-0.5550
 20
-1.2050
 30
0.0000
 11
0.5550
 21
-1.2050
 31
0.0000
 12
-0.5550
 22
1.2050
 32
0.0000
 13
0.5550
 23
1.2050
 33
0.0000
  0
ENDBLK
  8
0
  0
BLOCK
  8
0
  2
RECT172800X360000R10
 70
64
 10
0.0000
 20
0.0000
 30
0.0000
  3
RECT172800X360000R10
  0
POLYLINE
  8
0
 66
1
 10
0.0000
 20
0.0000
 30
0.0000
 40
0.0540
 41
0.0540
 70
1
  0
VERTEX
  8
0
 10
0.5130
 20
-1.0710
 30
0.0000
  0
VERTEX
  8
0
 10
0.5130
 20
1.0710
 30
0.0000
 42
0.4142
  0
VERTEX
  8
0
 10
0.4860
 20
1.0980
 30
0.0000
  0
VERTEX
  8
0
 10
-0.4860
 20
1.0980
 30
0.0000
 42
0.4142
  0
VERTEX
  8
0
 10
-0.5130
 20
1.0710
 30
0.0000
  0
VERTEX
  8
0
 10
-0.5130
 20
-1.0710
 30
0.0000
 42
0.4142
  0
VERTEX
  8
0
 10
-0.4860
 20
-1.0980
 30
0.0000
  0
VERTEX
  8
0
 10
0.4860
 20
-1.0980
 30
0.0000
 42
0.4142
  0
SEQEND
  8
0
  0
SOLID
  8
0
 10
-0.4995
 20
-1.0845
 30
0.0000
 11
0.4995
 21
-1.0845
 31
0.0000
 12
-0.4995
 22
1.0845
 32
0.0000
 13
0.4995
 23
1.0845
 33
0.0000
  0
ENDBLK
  8
0
  0
BLOCK
  8
0
  2
RECT512000X512000R10
 70
64
 10
0.0000
 20
0.0000
 30
0.0000
  3
RECT512000X512000R10
  0
POLYLINE
  8
0
 66
1
 10
0.0000
 20
0.0000
 30
0.0000
 40
0.1600
 41
0.1600
 70
1
  0
VERTEX
  8
0
 10
1.5200
 20
-1.4400
 30
0.0000
  0
VERTEX
  8
0
 10
1.5200
 20
1.4400
 30
0.0000
 42
0.4142
  0
VERTEX
  8
0
 10
1.4400
 20
1.5200
 30
0.0000
  0
VERTEX
  8
0
 10
-1.4400
 20
1.5200
 30
0.0000
 42
0.4142
  0
VERTEX
  8
0
 10
-1.5200
 20
1.4400
 30
0.0000
  0
VERTEX
  8
0
 10
-1.5200
 20
-1.4400
 30
0.0000
 42
0.4142
  0
VERTEX
  8
0
 10
-1.4400
 20
-1.5200
 30
0.0000
  0
VERTEX
  8
0
 10
1.4400
 20
-1.5200
 30
0.0000
 42
0.4142
  0
SEQEND
  8
0
  0
SOLID
  8
0
 10
-1.4654
 20
-1.4654
 30
0.0000
 11
1.4654
 21
-1.4654
 31
0.0000
 12
-1.4654
 22
1.4654
 32
0.0000
 13
1.4654
 23
1.4654
 33
0.0000
  0
ENDBLK
  8
0
  0
BLOCK
  8
0
  2
RECT460800X460800R10
 70
64
 10
0.0000
 20
0.0000
 30
0.0000
  3
RECT460800X460800R10
  0
POLYLINE
  8
0
 66
1
 10
0.0000
 20
0.0000
 30
0.0000
 40
0.1440
 41
0.1440
 70
1
  0
VERTEX
  8
0
 10
1.3680
 20
-1.2960
 30
0.0000
  0
VERTEX
  8
0
 10
1.3680
 20
1.2960
 30
0.0000
 42
0.4142
  0
VERTEX
  8
0
 10
1.2960
 20
1.3680
 30
0.0000
  0
VERTEX
  8
0
 10
-1.2960
 20
1.3680
 30
0.0000
 42
0.4142
  0
VERTEX
  8
0
 10
-1.3680
 20
1.2960
 30
0.0000
  0
VERTEX
  8
0
 10
-1.3680
 20
-1.2960
 30
0.0000
 42
0.4142
  0
VERTEX
  8
0
 10
-1.2960
 20
-1.3680
 30
0.0000
  0
VERTEX
  8
0
 10
1.2960
 20
-1.3680
 30
0.0000
 42
0.4142
  0
SEQEND
  8
0
  0
SOLID
  8
0
 10
-1.3214
 20
-1.3214
 30
0.0000
 11
1.3214
 21
-1.3214
 31
0.0000
 12
-1.3214
 22
1.3214
 32
0.0000
 13
1.3214
 23
1.3214
 33
0.0000
  0
ENDBLK
  8
0
  0
BLOCK
  8
0
  2
RECT624000X624000R10
 70
64
 10
0.0000
 20
0.0000
 30
0.0000
  3
RECT624000X624000R10
  0
POLYLINE
  8
0
 66
1
 10
0.0000
 20
0.0000
 30
0.0000
 40
0.1950
 41
0.1950
 70
1
  0
VERTEX
  8
0
 10
1.8525
 20
-1.7550
 30
0.0000
  0
VERTEX
  8
0
 10
1.8525
 20
1.7550
 30
0.0000
 42
0.4142
  0
VERTEX
  8
0
 10
1.7550
 20
1.8525
 30
0.0000
  0
VERTEX
  8
0
 10
-1.7550
 20
1.8525
 30
0.0000
 42
0.4142
  0
VERTEX
  8
0
 10
-1.8525
 20
1.7550
 30
0.0000
  0
VERTEX
  8
0
 10
-1.8525
 20
-1.7550
 30
0.0000
 42
0.4142
  0
VERTEX
  8
0
 10
-1.7550
 20
-1.8525
 30
0.0000
  0
VERTEX
  8
0
 10
1.7550
 20
-1.8525
 30
0.0000
 42
0.4142
  0
SEQEND
  8
0
  0
SOLID
  8
0
 10
-1.7804
 20
-1.7804
 30
0.0000
 11
1.7804
 21
-1.7804
 31
0.0000
 12
-1.7804
 22
1.7804
 32
0.0000
 13
1.7804
 23
1.7804
 33
0.0000
  0
ENDBLK
  8
0
  0
BLOCK
  8
0
  2
RECT561600X561600R10
 70
64
 10
0.0000
 20
0.0000
 30
0.0000
  3
RECT561600X561600R10
  0
POLYLINE
  8
0
 66
1
 10
0.0000
 20
0.0000
 30
0.0000
 40
0.1755
 41
0.1755
 70
1
  0
VERTEX
  8
0
 10
1.6673
 20
-1.5795
 30
0.0000
  0
VERTEX
  8
0
 10
1.6673
 20
1.5795
 30
0.0000
 42
0.4142
  0
VERTEX
  8
0
 10
1.5795
 20
1.6673
 30
0.0000
  0
VERTEX
  8
0
 10
-1.5795
 20
1.6673
 30
0.0000
 42
0.4142
  0
VERTEX
  8
0
 10
-1.6673
 20
1.5795
 30
0.0000
  0
VERTEX
  8
0
 10
-1.6673
 20
-1.5795
 30
0.0000
 42
0.4142
  0
VERTEX
  8
0
 10
-1.5795
 20
-1.6673
 30
0.0000
  0
VERTEX
  8
0
 10
1.5795
 20
-1.6673
 30
0.0000
 42
0.4142
  0
SEQEND
  8
0
  0
SOLID
  8
0
 10
-1.6049
 20
-1.6049
 30
0.0000
 11
1.6049
 21
-1.6049
 31
0.0000
 12
-1.6049
 22
1.6049
 32
0.0000
 13
1.6049
 23
1.6049
 33
0.0000
  0
ENDBLK
  8
0
  0
ENDSEC
  0
SECTION
  2
ENTITIES
  0
INSERT
  8
16
  2
RECT192000X400000R10
 10
41.8700
 20
36.6200
 30
0.0000
 41
1.0000
 42
1.0000
 43
1.0000
 50
180.0000
  0
INSERT
  8
32
  2
RECT172800X360000R10
 10
41.8700
 20
36.6200
 30
0.0000
 41
1.0000
 42
1.0000
 43
1.0000
 50
180.0000
  0
INSERT
  8
16
  2
RECT192000X400000R10
 10
39.3700
 20
36.6200
 30
0.0000
 41
1.0000
 42
1.0000
 43
1.0000
 50
180.0000
  0
INSERT
  8
32
  2
RECT172800X360000R10
 10
39.3700
 20
36.6200
 30
0.0000
 41
1.0000
 42
1.0000
 43
1.0000
 50
180.0000
  0
INSERT
  8
16
  2
RECT192000X400000R10
 10
36.8700
 20
36.6200
 30
0.0000
 41
1.0000
 42
1.0000
 43
1.0000
 50
180.0000
  0
INSERT
  8
32
  2
RECT172800X360000R10
 10
36.8700
 20
36.6200
 30
0.0000
 41
1.0000
 42
1.0000
 43
1.0000
 50
180.0000
  0
INSERT
  8
16
  2
RECT192000X400000R10
 10
41.8700
 20
42.1200
 30
0.0000
 41
1.0000
 42
1.0000
 43
1.0000
 50
180.0000
  0
INSERT
  8
32
  2
RECT172800X360000R10
 10
41.8700
 20
42.1200
 30
0.0000
 41
1.0000
 42
1.0000
 43
1.0000
 50
180.0000
  0
INSERT
  8
16
  2
RECT192000X400000R10
 10
39.3700
 20
42.1200
 30
0.0000
 41
1.0000
 42
1.0000
 43
1.0000
 50
180.0000
  0
INSERT
  8
32
  2
RECT172800X360000R10
 10
39.3700
 20
42.1200
 30
0.0000
 41
1.0000
 42
1.0000
 43
1.0000
 50
180.0000
  0
INSERT
  8
16
  2
RECT192000X400000R10
 10
36.8700
 20
42.1200
 30
0.0000
 41
1.0000
 42
1.0000
 43
1.0000
 50
180.0000
  0
INSERT
  8
32
  2
RECT172800X360000R10
 10
36.8700
 20
42.1200
 30
0.0000
 41
1.0000
 42
1.0000
 43
1.0000
 50
180.0000
  0
INSERT
  8
16
  2
RECT512000X512000R10
 10
33.6000
 20
27.9400
 30
0.0000
 41
1.0000
 42
1.0000
 43
1.0000
 50
180.0000
  0
INSERT
  8
32
  2
RECT460800X460800R10
 10
33.6000
 20
27.9400
 30
0.0000
 41
1.0000
 42
1.0000
 43
1.0000
 50
180.0000
  0
INSERT
  8
16
  2
RECT512000X512000R10
 10
17.2000
 20
27.9400
 30
0.0000
 41
1.0000
 42
1.0000
 43
1.0000
 50
180.0000
  0
INSERT
  8
32
  2
RECT460800X460800R10
 10
17.2000
 20
27.9400
 30
0.0000
 41
1.0000
 42
1.0000
 43
1.0000
 50
180.0000
  0
INSERT
  8
16
  2
RECT624000X624000R10
 10
25.4000
 20
27.9400
 30
0.0000
 41
1.0000
 42
1.0000
 43
1.0000
 50
180.0000
  0
INSERT
  8
32
  2
RECT561600X561600R10
 10
25.4000
 20
27.9400
 30
0.0000
 41
1.0000
 42
1.0000
 43
1.0000
 50
180.0000
  0
POLYLINE
  8
16
 66
1
 10
0.0000
 20
0.0000
 30
0.0000
 40
0.2540
 41
0.2540
 70
0
  0
VERTEX
  8
16
 10
1.4160
 20
37.2050
 30
0.0000
  0
VERTEX
  8
16
 10
0.9960
 20
34.5520
 30
0.0000
  0
SEQEND
  8
0
  0
POLYLINE
  8
16
 66
1
 10
0.0000
 20
0.0000
 30
0.0000
 40
0.1270
 41
0.1270
 70
0
  0
VERTEX
  8
16
 10
0.9333
 20
34.5619
 30
0.0000
 42
1.0000
  0
VERTEX
  8
16
 10
1.0587
 20
34.5421
 30
0.0000
  0
SEQEND
  8
0
  0
POLYLINE
  8
16
 66
1
 10
0.0000
 20
0.0000
 30
0.0000
 40
0.1270
 41
0.1270
 70
0
  0
VERTEX
  8
16
 10
1.4787
 20
37.1951
 30
0.0000
 42
1.0000
  0
VERTEX
  8
16
 10
1.3533
 20
37.2149
 30
0.0000
  0
SEQEND
  8
0
  0
POLYLINE
  8
16
 66
1
 10
0.0000
 20
0.0000
 30
0.0000
 40
0.2540
 41
0.2540
 70
0
  0
VERTEX
  8
16
 10
0.9960
 20
34.5520
 30
0.0000
  0
VERTEX
  8
16
 10
0.9980
 20
31.9800
 30
0.0000
  0
SEQEND
  8
0
  0
POLYLINE
  8
16
 66
1
 10
0.0000
 20
0.0000
 30
0.0000
 40
0.1270
 41
0.1270
 70
0
  0
VERTEX
  8
16
 10
0.9345
 20
31.9800
 30
0.0000
 42
1.0000
  0
VERTEX
  8
16
 10
1.0615
 20
31.9800
 30
0.0000
  0
SEQEND
  8
0
  0
POLYLINE
  8
16
 66
1
 10
0.0000
 20
0.0000
 30
0.0000
 40
0.1270
 41
0.1270
 70
0
  0
VERTEX
  8
16
 10
1.0595
 20
34.5520
 30
0.0000
 42
1.0000
  0
VERTEX
  8
16
 10
0.9325
 20
34.5520
 30
0.0000
  0
SEQEND
  8
0
  0
POLYLINE
  8
16
 66
1
 10
0.0000
 20
0.0000
 30
0.0000
 40
0.2540
 41
0.2540
 70
0
  0
VERTEX
  8
16
 10
0.9980
 20
31.9800
 30
0.0000
  0
VERTEX
  8
16
 10
1.3990
 20
29.4890
 30
0.0000
  0
SEQEND
  8
0
  0
POLYLINE
  8
16
 66
1
 10
0.0000
 20
0.0000
 30
0.0000
 40
0.1270
 41
0.1270
 70
0
  0
VERTEX
  8
16
 10
1.3363
 20
29.4789
 30
0.0000
 42
1.0000
  0
VERTEX
  8
16
 10
1.4617
 20
29.4991
 30
0.0000
  0
SEQEND
  8
0
  0
POLYLINE
  8
16
 66
1
 10
0.0000
 20
0.0000
 30
0.0000
 40
0.1270
 41
0.1270
 70
0
  0
VERTEX
  8
16
 10
1.0607
 20
31.9901
 30
0.0000
 42
1.0000
  0
VERTEX
  8
16
 10
0.9353
 20
31.9699
 30
0.0000
  0
SEQEND
  8
0
  0
POLYLINE
  8
16
 66
1
 10
0.0000
 20
0.0000
 30
0.0000
 40
0.2540
 41
0.2540
 70
0
  0
VERTEX
  8
16
 10
1.3990
 20
29.4890
 30
0.0000
  0
VERTEX
  8
16
 10
2.1760
 20
27.0800
 30
0.0000
  0
SEQEND
  8
0
  0
POLYLINE
  8
16
 66
1
 10
0.0000
 20
0.0000
 30
0.0000
 40
0.1270
 41
0.1270
 70
0
  0
VERTEX
  8
16
 10
2.1156
 20
27.0605
 30
0.0000
 42
1.0000
  0
VERTEX
  8
16
 10
2.2364
 20
27.0995
 30
0.0000
  0
SEQEND
  8
0
  0
POLYLINE
  8
16
 66
1
 10
0.0000
 20
0.0000
 30
0.0000
 40
0.1270
 41
0.1270
 70
0
  0
VERTEX
  8
16
 10
1.4594
 20
29.5085
 30
0.0000
 42
1.0000
  0
VERTEX
  8
16
 10
1.3386
 20
29.4695
 30
0.0000
  0
SEQEND
  8
0
  0
POLYLINE
  8
16
 66
1
 10
0.0000
 20
0.0000
 30
0.0000
 40
0.2540
 41
0.2540
 70
0
  0
VERTEX
  8
16
 10
2.1760
 20
27.0800
 30
0.0000
  0
VERTEX
  8
16
 10
3.3060
 20
24.7510
 30
0.0000
  0
SEQEND
  8
0
  0
POLYLINE
  8
16
 66
1
 10
0.0000
 20
0.0000
 30
0.0000
 40
0.1270
 41
0.1270
 70
0
  0
VERTEX
  8
16
 10
3.2489
 20
24.7233
 30
0.0000
 42
1.0000
  0
VERTEX
  8
16
 10
3.3631
 20
24.7787
 30
0.0000
  0
SEQEND
  8
0
  0
POLYLINE
  8
16
 66
1
 10
0.0000
 20
0.0000
 30
0.0000
 40
0.1270
 41
0.1270
 70
0
  0
VERTEX
  8
16
 10
2.2331
 20
27.1077
 30
0.0000
 42
1.0000
  0
VERTEX
  8
16
 10
2.1189
 20
27.0523
 30
0.0000
  0
SEQEND
  8
0
  0
POLYLINE
  8
16
 66
1
 10
0.0000
 20
0.0000
 30
0.0000
 40
0.2540
 41
0.2540
 70
0
  0
VERTEX
  8
16
 10
3.3060
 20
24.7510
 30
0.0000
  0
VERTEX
  8
16
 10
4.7660
 20
22.5040
 30
0.0000
  0
SEQEND
  8
0
  0
POLYLINE
  8
16
 66
1
 10
0.0000
 20
0.0000
 30
0.0000
 40
0.1270
 41
0.1270
 70
0
  0
VERTEX
  8
16
 10
4.7128
 20
22.4694
 30
0.0000
 42
1.0000
  0
VERTEX
  8
16
 10
4.8192
 20
22.5386
 30
0.0000
  0
SEQEND
  8
0
  0
POLYLINE
  8
16
 66
1
 10
0.0000
 20
0.0000
 30
0.0000
 40
0.1270
 41
0.1270
 70
0
  0
VERTEX
  8
16
 10
3.3592
 20
24.7856
 30
0.0000
 42
1.0000
  0
VERTEX
  8
16
 10
3.2528
 20
24.7164
 30
0.0000
  0
SEQEND
  8
0
  0
POLYLINE
  8
16
 66
1
 10
0.0000
 20
0.0000
 30
0.0000
 40
0.2540
 41
0.2540
 70
0
  0
VERTEX
  8
16
 10
4.7660
 20
22.5040
 30
0.0000
  0
VERTEX
  8
16
 10
6.1640
 20
20.7540
 30
0.0000
  0
SEQEND
  8
0
  0
POLYLINE
  8
16
 66
1
 10
0.0000
 20
0.0000
 30
0.0000
 40
0.1270
 41
0.1270
 70
0
  0
VERTEX
  8
16
 10
6.1144
 20
20.7144
 30
0.0000
 42
1.0000
  0
VERTEX
  8
16
 10
6.2136
 20
20.7936
 30
0.0000
  0
SEQEND
  8
0
  0
POLYLINE
  8
16
 66
1
 10
0.0000
 20
0.0000
 30
0.0000
 40
0.1270
 41
0.1270
 70
0
  0
VERTEX
  8
16
 10
4.8156
 20
22.5436
 30
0.0000
 42
1.0000
  0
VERTEX
  8
16
 10
4.7164
 20
22.4644
 30
0.0000
  0
SEQEND
  8
0
  0
POLYLINE
  8
16
 66
1
 10
0.0000
 20
0.0000
 30
0.0000
 40
0.2540
 41
0.2540
 70
0
  0
VERTEX
  8
16
 10
6.1640
 20
20.7540
 30
0.0000
  0
VERTEX
  8
16
 10
9.0830
 20
17.7320
 30
0.0000
  0
SEQEND
  8
0
  0
POLYLINE
  8
16
 66
1
 10
0.0000
 20
0.0000
 30
0.0000
 40
0.1270
 41
0.1270
 70
0
  0
VERTEX
  8
16
 10
9.0373
 20
17.6879
 30
0.0000
 42
1.0000
  0
VERTEX
  8
16
 10
9.1287
 20
17.7761
 30
0.0000
  0
SEQEND
  8
0
  0
POLYLINE
  8
16
 66
1
 10
0.0000
 20
0.0000
 30
0.0000
 40
0.1270
 41
0.1270
 70
0
  0
VERTEX
  8
16
 10
6.2097
 20
20.7981
 30
0.0000
 42
1.0000
  0
VERTEX
  8
16
 10
6.1183
 20
20.7099
 30
0.0000
  0
SEQEND
  8
0
  0
POLYLINE
  8
16
 66
1
 10
0.0000
 20
0.0000
 30
0.0000
 40
0.2540
 41
0.2540
 70
0
  0
VERTEX
  8
16
 10
9.0830
 20
17.7320
 30
0.0000
  0
VERTEX
  8
16
 10
12.2160
 20
14.9250
 30
0.0000
  0
SEQEND
  8
0
  0
POLYLINE
  8
16
 66
1
 10
0.0000
 20
0.0000
 30
0.0000
 40
0.1270
 41
0.1270
 70
0
  0
VERTEX
  8
16
 10
12.1736
 20
14.8777
 30
0.0000
 42
1.0000
  0
VERTEX
  8
16
 10
12.2584
 20
14.9723
 30
0.0000
  0
SEQEND
  8
0
  0
POLYLINE
  8
16
 66
1
 10
0.0000
 20
0.0000
 30
0.0000
 40
0.1270
 41
0.1270
 70
0
  0
VERTEX
  8
16
 10
9.1254
 20
17.7793
 30
0.0000
 42
1.0000
  0
VERTEX
  8
16
 10
9.0406
 20
17.6847
 30
0.0000
  0
SEQEND
  8
0
  0
POLYLINE
  8
16
 66
1
 10
0.0000
 20
0.0000
 30
0.0000
 40
0.2540
 41
0.2540
 70
0
  0
VERTEX
  8
16
 10
12.2160
 20
14.9250
 30
0.0000
  0
VERTEX
  8
16
 10
15.4770
 20
12.0660
 30
0.0000
  0
SEQEND
  8
0
  0
POLYLINE
  8
16
 66
1
 10
0.0000
 20
0.0000
 30
0.0000
 40
0.1270
 41
0.1270
 70
0
  0
VERTEX
  8
16
 10
15.4351
 20
12.0183
 30
0.0000
 42
1.0000
  0
VERTEX
  8
16
 10
15.5189
 20
12.1137
 30
0.0000
  0
SEQEND
  8
0
  0
POLYLINE
  8
16
 66
1
 10
0.0000
 20
0.0000
 30
0.0000
 40
0.1270
 41
0.1270
 70
0
  0
VERTEX
  8
16
 10
12.2579
 20
14.9727
 30
0.0000
 42
1.0000
  0
VERTEX
  8
16
 10
12.1741
 20
14.8773
 30
0.0000
  0
SEQEND
  8
0
  0
POLYLINE
  8
16
 66
1
 10
0.0000
 20
0.0000
 30
0.0000
 40
0.2540
 41
0.2540
 70
0
  0
VERTEX
  8
16
 10
15.4770
 20
12.0660
 30
0.0000
  0
VERTEX
  8
16
 10
18.9970
 20
8.7380
 30
0.0000
  0
SEQEND
  8
0
  0
POLYLINE
  8
16
 66
1
 10
0.0000
 20
0.0000
 30
0.0000
 40
0.1270
 41
0.1270
 70
0
  0
VERTEX
  8
16
 10
18.9534
 20
8.6919
 30
0.0000
 42
1.0000
  0
VERTEX
  8
16
 10
19.0406
 20
8.7841
 30
0.0000
  0
SEQEND
  8
0
  0
POLYLINE
  8
16
 66
1
 10
0.0000
 20
0.0000
 30
0.0000
 40
0.1270
 41
0.1270
 70
0
  0
VERTEX
  8
16
 10
15.5206
 20
12.1121
 30
0.0000
 42
1.0000
  0
VERTEX
  8
16
 10
15.4334
 20
12.0199
 30
0.0000
  0
SEQEND
  8
0
  0
POLYLINE
  8
16
 66
1
 10
0.0000
 20
0.0000
 30
0.0000
 40
0.2540
 41
0.2540
 70
0
  0
VERTEX
  8
16
 10
18.9970
 20
8.7380
 30
0.0000
  0
VERTEX
  8
16
 10
22.2590
 20
5.1750
 30
0.0000
  0
SEQEND
  8
0
  0
POLYLINE
  8
16
 66
1
 10
0.0000
 20
0.0000
 30
0.0000
 40
0.1270
 41
0.1270
 70
0
  0
VERTEX
  8
16
 10
22.2122
 20
5.1321
 30
0.0000
 42
1.0000
  0
VERTEX
  8
16
 10
22.3058
 20
5.2179
 30
0.0000
  0
SEQEND
  8
0
  0
POLYLINE
  8
16
 66
1
 10
0.0000
 20
0.0000
 30
0.0000
 40
0.1270
 41
0.1270
 70
0
  0
VERTEX
  8
16
 10
19.0438
 20
8.7809
 30
0.0000
 42
1.0000
  0
VERTEX
  8
16
 10
18.9502
 20
8.6951
 30
0.0000
  0
SEQEND
  8
0
  0
POLYLINE
  8
16
 66
1
 10
0.0000
 20
0.0000
 30
0.0000
 40
0.2540
 41
0.2540
 70
0
  0
VERTEX
  8
16
 10
22.2590
 20
5.1750
 30
0.0000
  0
VERTEX
  8
16
 10
25.1430
 20
1.2700
 30
0.0000
  0
SEQEND
  8
0
  0
POLYLINE
  8
16
 66
1
 10
0.0000
 20
0.0000
 30
0.0000
 40
0.1270
 41
0.1270
 70
0
  0
VERTEX
  8
16
 10
25.0919
 20
1.2323
 30
0.0000
 42
1.0000
  0
VERTEX
  8
16
 10
25.1941
 20
1.3077
 30
0.0000
  0
SEQEND
  8
0
  0
POLYLINE
  8
16
 66
1
 10
0.0000
 20
0.0000
 30
0.0000
 40
0.1270
 41
0.1270
 70
0
  0
VERTEX
  8
16
 10
22.3101
 20
5.2127
 30
0.0000
 42
1.0000
  0
VERTEX
  8
16
 10
22.2079
 20
5.1373
 30
0.0000
  0
SEQEND
  8
0
  0
POLYLINE
  8
16
 66
1
 10
0.0000
 20
0.0000
 30
0.0000
 40
0.2540
 41
0.2540
 70
0
  0
VERTEX
  8
16
 10
25.1430
 20
1.2700
 30
0.0000
  0
VERTEX
  8
16
 10
26.4360
 20
1.2700
 30
0.0000
  0
SEQEND
  8
0
  0
POLYLINE
  8
16
 66
1
 10
0.0000
 20
0.0000
 30
0.0000
 40
0.1270
 41
0.1270
 70
0
  0
VERTEX
  8
16
 10
26.4360
 20
1.2065
 30
0.0000
 42
1.0000
  0
VERTEX
  8
16
 10
26.4360
 20
1.3335
 30
0.0000
  0
SEQEND
  8
0
  0
POLYLINE
  8
16
 66
1
 10
0.0000
 20
0.0000
 30
0.0000
 40
0.1270
 41
0.1270
 70
0
  0
VERTEX
  8
16
 10
25.1430
 20
1.3335
 30
0.0000
 42
1.0000
  0
VERTEX
  8
16
 10
25.1430
 20
1.2065
 30
0.0000
  0
SEQEND
  8
0
  0
POLYLINE
  8
16
 66
1
 10
0.0000
 20
0.0000
 30
0.0000
 40
0.2540
 41
0.2540
 70
0
  0
VERTEX
  8
16
 10
26.4360
 20
1.2700
 30
0.0000
  0
VERTEX
  8
16
 10
28.0260
 20
3.6230
 30
0.0000
  0
SEQEND
  8
0
  0
POLYLINE
  8
16
 66
1
 10
0.0000
 20
0.0000
 30
0.0000
 40
0.1270
 41
0.1270
 70
0
  0
VERTEX
  8
16
 10
28.0786
 20
3.5874
 30
0.0000
 42
1.0000
  0
VERTEX
  8
16
 10
27.9734
 20
3.6586
 30
0.0000
  0
SEQEND
  8
0
  0
POLYLINE
  8
16
 66
1
 10
0.0000
 20
0.0000
 30
0.0000
 40
0.1270
 41
0.1270
 70
0
  0
VERTEX
  8
16
 10
26.3834
 20
1.3056
 30
0.0000
 42
1.0000
  0
VERTEX
  8
16
 10
26.4886
 20
1.2344
 30
0.0000
  0
SEQEND
  8
0
  0
POLYLINE
  8
16
 66
1
 10
0.0000
 20
0.0000
 30
0.0000
 40
0.2540
 41
0.2540
 70
0
  0
VERTEX
  8
16
 10
28.0260
 20
3.6230
 30
0.0000
  0
VERTEX
  8
16
 10
29.7720
 20
5.8370
 30
0.0000
  0
SEQEND
  8
0
  0
POLYLINE
  8
16
 66
1
 10
0.0000
 20
0.0000
 30
0.0000
 40
0.1270
 41
0.1270
 70
0
  0
VERTEX
  8
16
 10
29.8219
 20
5.7977
 30
0.0000
 42
1.0000
  0
VERTEX
  8
16
 10
29.7221
 20
5.8763
 30
0.0000
  0
SEQEND
  8
0
  0
POLYLINE
  8
16
 66
1
 10
0.0000
 20
0.0000
 30
0.0000
 40
0.1270
 41
0.1270
 70
0
  0
VERTEX
  8
16
 10
27.9761
 20
3.6623
 30
0.0000
 42
1.0000
  0
VERTEX
  8
16
 10
28.0759
 20
3.5837
 30
0.0000
  0
SEQEND
  8
0
  0
POLYLINE
  8
16
 66
1
 10
0.0000
 20
0.0000
 30
0.0000
 40
0.2540
 41
0.2540
 70
0
  0
VERTEX
  8
16
 10
29.7720
 20
5.8370
 30
0.0000
  0
VERTEX
  8
16
 10
33.6170
 20
9.9580
 30
0.0000
  0
SEQEND
  8
0
  0
POLYLINE
  8
16
 66
1
 10
0.0000
 20
0.0000
 30
0.0000
 40
0.1270
 41
0.1270
 70
0
  0
VERTEX
  8
16
 10
33.6634
 20
9.9147
 30
0.0000
 42
1.0000
  0
VERTEX
  8
16
 10
33.5706
 20
10.0013
 30
0.0000
  0
SEQEND
  8
0
  0
POLYLINE
  8
16
 66
1
 10
0.0000
 20
0.0000
 30
0.0000
 40
0.1270
 41
0.1270
 70
0
  0
VERTEX
  8
16
 10
29.7256
 20
5.8803
 30
0.0000
 42
1.0000
  0
VERTEX
  8
16
 10
29.8184
 20
5.7937
 30
0.0000
  0
SEQEND
  8
0
  0
POLYLINE
  8
16
 66
1
 10
0.0000
 20
0.0000
 30
0.0000
 40
0.2540
 41
0.2540
 70
0
  0
VERTEX
  8
16
 10
33.6170
 20
9.9580
 30
0.0000
  0
VERTEX
  8
16
 10
35.6580
 20
11.9180
 30
0.0000
  0
SEQEND
  8
0
  0
POLYLINE
  8
16
 66
1
 10
0.0000
 20
0.0000
 30
0.0000
 40
0.1270
 41
0.1270
 70
0
  0
VERTEX
  8
16
 10
35.7020
 20
11.8722
 30
0.0000
 42
1.0000
  0
VERTEX
  8
16
 10
35.6140
 20
11.9638
 30
0.0000
  0
SEQEND
  8
0
  0
POLYLINE
  8
16
 66
1
 10
0.0000
 20
0.0000
 30
0.0000
 40
0.1270
 41
0.1270
 70
0
  0
VERTEX
  8
16
 10
33.5730
 20
10.0038
 30
0.0000
 42
1.0000
  0
VERTEX
  8
16
 10
33.6610
 20
9.9122
 30
0.0000
  0
SEQEND
  8
0
  0
POLYLINE
  8
16
 66
1
 10
0.0000
 20
0.0000
 30
0.0000
 40
0.2540
 41
0.2540
 70
0
  0
VERTEX
  8
16
 10
35.6580
 20
11.9180
 30
0.0000
  0
VERTEX
  8
16
 10
37.6120
 20
13.7330
 30
0.0000
  0
SEQEND
  8
0
  0
POLYLINE
  8
16
 66
1
 10
0.0000
 20
0.0000
 30
0.0000
 40
0.1270
 41
0.1270
 70
0
  0
VERTEX
  8
16
 10
37.6552
 20
13.6865
 30
0.0000
 42
1.0000
  0
VERTEX
  8
16
 10
37.5688
 20
13.7795
 30
0.0000
  0
SEQEND
  8
0
  0
POLYLINE
  8
16
 66
1
 10
0.0000
 20
0.0000
 30
0.0000
 40
0.1270
 41
0.1270
 70
0
  0
VERTEX
  8
16
 10
35.6148
 20
11.9645
 30
0.0000
 42
1.0000
  0
VERTEX
  8
16
 10
35.7012
 20
11.8715
 30
0.0000
  0
SEQEND
  8
0
  0
POLYLINE
  8
16
 66
1
 10
0.0000
 20
0.0000
 30
0.0000
 40
0.2540
 41
0.2540
 70
0
  0
VERTEX
  8
16
 10
37.6120
 20
13.7330
 30
0.0000
  0
VERTEX
  8
16
 10
41.3920
 20
17.2610
 30
0.0000
  0
SEQEND
  8
0
  0
POLYLINE
  8
16
 66
1
 10
0.0000
 20
0.0000
 30
0.0000
 40
0.1270
 41
0.1270
 70
0
  0
VERTEX
  8
16
 10
41.4353
 20
17.2146
 30
0.0000
 42
1.0000
  0
VERTEX
  8
16
 10
41.3487
 20
17.3074
 30
0.0000
  0
SEQEND
  8
0
  0
POLYLINE
  8
16
 66
1
 10
0.0000
 20
0.0000
 30
0.0000
 40
0.1270
 41
0.1270
 70
0
  0
VERTEX
  8
16
 10
37.5687
 20
13.7794
 30
0.0000
 42
1.0000
  0
VERTEX
  8
16
 10
37.6553
 20
13.6866
 30
0.0000
  0
SEQEND
  8
0
  0
POLYLINE
  8
16
 66
1
 10
0.0000
 20
0.0000
 30
0.0000
 40
0.2540
 41
0.2540
 70
0
  0
VERTEX
  8
16
 10
41.3920
 20
17.2610
 30
0.0000
  0
VERTEX
  8
16
 10
45.0500
 20
20.9030
 30
0.0000
  0
SEQEND
  8
0
  0
POLYLINE
  8
16
 66
1
 10
0.0000
 20
0.0000
 30
0.0000
 40
0.1270
 41
0.1270
 70
0
  0
VERTEX
  8
16
 10
45.0948
 20
20.8580
 30
0.0000
 42
1.0000
  0
VERTEX
  8
16
 10
45.0052
 20
20.9480
 30
0.0000
  0
SEQEND
  8
0
  0
POLYLINE
  8
16
 66
1
 10
0.0000
 20
0.0000
 30
0.0000
 40
0.1270
 41
0.1270
 70
0
  0
VERTEX
  8
16
 10
41.3472
 20
17.3060
 30
0.0000
 42
1.0000
  0
VERTEX
  8
16
 10
41.4368
 20
17.2160
 30
0.0000
  0
SEQEND
  8
0
  0
POLYLINE
  8
16
 66
1
 10
0.0000
 20
0.0000
 30
0.0000
 40
0.2540
 41
0.2540
 70
0
  0
VERTEX
  8
16
 10
45.0500
 20
20.9030
 30
0.0000
  0
VERTEX
  8
16
 10
46.8440
 20
22.8890
 30
0.0000
  0
SEQEND
  8
0
  0
POLYLINE
  8
16
 66
1
 10
0.0000
 20
0.0000
 30
0.0000
 40
0.1270
 41
0.1270
 70
0
  0
VERTEX
  8
16
 10
46.8911
 20
22.8464
 30
0.0000
 42
1.0000
  0
VERTEX
  8
16
 10
46.7969
 20
22.9316
 30
0.0000
  0
SEQEND
  8
0
  0
POLYLINE
  8
16
 66
1
 10
0.0000
 20
0.0000
 30
0.0000
 40
0.1270
 41
0.1270
 70
0
  0
VERTEX
  8
16
 10
45.0029
 20
20.9456
 30
0.0000
 42
1.0000
  0
VERTEX
  8
16
 10
45.0971
 20
20.8604
 30
0.0000
  0
SEQEND
  8
0
  0
POLYLINE
  8
16
 66
1
 10
0.0000
 20
0.0000
 30
0.0000
 40
0.2540
 41
0.2540
 70
0
  0
VERTEX
  8
16
 10
46.8440
 20
22.8890
 30
0.0000
  0
VERTEX
  8
16
 10
48.4410
 20
25.1870
 30
0.0000
  0
SEQEND
  8
0
  0
POLYLINE
  8
16
 66
1
 10
0.0000
 20
0.0000
 30
0.0000
 40
0.1270
 41
0.1270
 70
0
  0
VERTEX
  8
16
 10
48.4931
 20
25.1508
 30
0.0000
 42
1.0000
  0
VERTEX
  8
16
 10
48.3889
 20
25.2232
 30
0.0000
  0
SEQEND
  8
0
  0
POLYLINE
  8
16
 66
1
 10
0.0000
 20
0.0000
 30
0.0000
 40
0.1270
 41
0.1270
 70
0
  0
VERTEX
  8
16
 10
46.7919
 20
22.9252
 30
0.0000
 42
1.0000
  0
VERTEX
  8
16
 10
46.8961
 20
22.8528
 30
0.0000
  0
SEQEND
  8
0
  0
POLYLINE
  8
16
 66
1
 10
0.0000
 20
0.0000
 30
0.0000
 40
0.2540
 41
0.2540
 70
0
  0
VERTEX
  8
16
 10
48.4410
 20
25.1870
 30
0.0000
  0
VERTEX
  8
16
 10
49.6120
 20
27.6490
 30
0.0000
  0
SEQEND
  8
0
  0
POLYLINE
  8
16
 66
1
 10
0.0000
 20
0.0000
 30
0.0000
 40
0.1270
 41
0.1270
 70
0
  0
VERTEX
  8
16
 10
49.6693
 20
27.6217
 30
0.0000
 42
1.0000
  0
VERTEX
  8
16
 10
49.5547
 20
27.6763
 30
0.0000
  0
SEQEND
  8
0
  0
POLYLINE
  8
16
 66
1
 10
0.0000
 20
0.0000
 30
0.0000
 40
0.1270
 41
0.1270
 70
0
  0
VERTEX
  8
16
 10
48.3837
 20
25.2143
 30
0.0000
 42
1.0000
  0
VERTEX
  8
16
 10
48.4983
 20
25.1597
 30
0.0000
  0
SEQEND
  8
0
  0
POLYLINE
  8
16
 66
1
 10
0.0000
 20
0.0000
 30
0.0000
 40
0.2540
 41
0.2540
 70
0
  0
VERTEX
  8
16
 10
49.6120
 20
27.6490
 30
0.0000
  0
VERTEX
  8
16
 10
50.3440
 20
30.2570
 30
0.0000
  0
SEQEND
  8
0
  0
POLYLINE
  8
16
 66
1
 10
0.0000
 20
0.0000
 30
0.0000
 40
0.1270
 41
0.1270
 70
0
  0
VERTEX
  8
16
 10
50.4051
 20
30.2398
 30
0.0000
 42
1.0000
  0
VERTEX
  8
16
 10
50.2829
 20
30.2742
 30
0.0000
  0
SEQEND
  8
0
  0
POLYLINE
  8
16
 66
1
 10
0.0000
 20
0.0000
 30
0.0000
 40
0.1270
 41
0.1270
 70
0
  0
VERTEX
  8
16
 10
49.5509
 20
27.6662
 30
0.0000
 42
1.0000
  0
VERTEX
  8
16
 10
49.6731
 20
27.6318
 30
0.0000
  0
SEQEND
  8
0
  0
POLYLINE
  8
16
 66
1
 10
0.0000
 20
0.0000
 30
0.0000
 40
0.2540
 41
0.2540
 70
0
  0
VERTEX
  8
16
 10
50.3440
 20
30.2570
 30
0.0000
  0
VERTEX
  8
16
 10
50.6240
 20
32.9900
 30
0.0000
  0
SEQEND
  8
0
  0
POLYLINE
  8
16
 66
1
 10
0.0000
 20
0.0000
 30
0.0000
 40
0.1270
 41
0.1270
 70
0
  0
VERTEX
  8
16
 10
50.6872
 20
32.9835
 30
0.0000
 42
1.0000
  0
VERTEX
  8
16
 10
50.5608
 20
32.9965
 30
0.0000
  0
SEQEND
  8
0
  0
POLYLINE
  8
16
 66
1
 10
0.0000
 20
0.0000
 30
0.0000
 40
0.1270
 41
0.1270
 70
0
  0
VERTEX
  8
16
 10
50.2808
 20
30.2635
 30
0.0000
 42
1.0000
  0
VERTEX
  8
16
 10
50.4072
 20
30.2505
 30
0.0000
  0
SEQEND
  8
0
  0
POLYLINE
  8
16
 66
1
 10
0.0000
 20
0.0000
 30
0.0000
 40
0.2540
 41
0.2540
 70
0
  0
VERTEX
  8
16
 10
50.6240
 20
32.9900
 30
0.0000
  0
VERTEX
  8
16
 10
50.4420
 20
35.8290
 30
0.0000
  0
SEQEND
  8
0
  0
POLYLINE
  8
16
 66
1
 10
0.0000
 20
0.0000
 30
0.0000
 40
0.1270
 41
0.1270
 70
0
  0
VERTEX
  8
16
 10
50.5054
 20
35.8331
 30
0.0000
 42
1.0000
  0
VERTEX
  8
16
 10
50.3786
 20
35.8249
 30
0.0000
  0
SEQEND
  8
0
  0
POLYLINE
  8
16
 66
1
 10
0.0000
 20
0.0000
 30
0.0000
 40
0.1270
 41
0.1270
 70
0
  0
VERTEX
  8
16
 10
50.5606
 20
32.9859
 30
0.0000
 42
1.0000
  0
VERTEX
  8
16
 10
50.6874
 20
32.9941
 30
0.0000
  0
SEQEND
  8
0
  0
POLYLINE
  8
16
 66
1
 10
0.0000
 20
0.0000
 30
0.0000
 40
0.2540
 41
0.2540
 70
0
  0
VERTEX
  8
16
 10
50.4420
 20
35.8290
 30
0.0000
  0
VERTEX
  8
16
 10
49.7470
 20
38.7270
 30
0.0000
  0
SEQEND
  8
0
  0
POLYLINE
  8
16
 66
1
 10
0.0000
 20
0.0000
 30
0.0000
 40
0.1270
 41
0.1270
 70
0
  0
VERTEX
  8
16
 10
49.8087
 20
38.7418
 30
0.0000
 42
1.0000
  0
VERTEX
  8
16
 10
49.6853
 20
38.7122
 30
0.0000
  0
SEQEND
  8
0
  0
POLYLINE
  8
16
 66
1
 10
0.0000
 20
0.0000
 30
0.0000
 40
0.1270
 41
0.1270
 70
0
  0
VERTEX
  8
16
 10
50.3803
 20
35.8142
 30
0.0000
 42
1.0000
  0
VERTEX
  8
16
 10
50.5037
 20
35.8438
 30
0.0000
  0
SEQEND
  8
0
  0
POLYLINE
  8
16
 66
1
 10
0.0000
 20
0.0000
 30
0.0000
 40
0.2540
 41
0.2540
 70
0
  0
VERTEX
  8
16
 10
49.7470
 20
38.7270
 30
0.0000
  0
VERTEX
  8
16
 10
48.5600
 20
41.2630
 30
0.0000
  0
SEQEND
  8
0
  0
POLYLINE
  8
16
 66
1
 10
0.0000
 20
0.0000
 30
0.0000
 40
0.1270
 41
0.1270
 70
0
  0
VERTEX
  8
16
 10
48.6175
 20
41.2899
 30
0.0000
 42
1.0000
  0
VERTEX
  8
16
 10
48.5025
 20
41.2361
 30
0.0000
  0
SEQEND
  8
0
  0
POLYLINE
  8
16
 66
1
 10
0.0000
 20
0.0000
 30
0.0000
 40
0.1270
 41
0.1270
 70
0
  0
VERTEX
  8
16
 10
49.6895
 20
38.7001
 30
0.0000
 42
1.0000
  0
VERTEX
  8
16
 10
49.8045
 20
38.7539
 30
0.0000
  0
SEQEND
  8
0
  0
POLYLINE
  8
16
 66
1
 10
0.0000
 20
0.0000
 30
0.0000
 40
0.2540
 41
0.2540
 70
0
  0
VERTEX
  8
16
 10
48.5600
 20
41.2630
 30
0.0000
  0
VERTEX
  8
16
 10
46.8930
 20
43.4190
 30
0.0000
  0
SEQEND
  8
0
  0
POLYLINE
  8
16
 66
1
 10
0.0000
 20
0.0000
 30
0.0000
 40
0.1270
 41
0.1270
 70
0
  0
VERTEX
  8
16
 10
46.9432
 20
43.4578
 30
0.0000
 42
1.0000
  0
VERTEX
  8
16
 10
46.8428
 20
43.3802
 30
0.0000
  0
SEQEND
  8
0
  0
POLYLINE
  8
16
 66
1
 10
0.0000
 20
0.0000
 30
0.0000
 40
0.1270
 41
0.1270
 70
0
  0
VERTEX
  8
16
 10
48.5098
 20
41.2242
 30
0.0000
 42
1.0000
  0
VERTEX
  8
16
 10
48.6102
 20
41.3018
 30
0.0000
  0
SEQEND
  8
0
  0
POLYLINE
  8
16
 66
1
 10
0.0000
 20
0.0000
 30
0.0000
 40
0.2540
 41
0.2540
 70
0
  0
VERTEX
  8
16
 10
46.8930
 20
43.4190
 30
0.0000
  0
VERTEX
  8
16
 10
44.7590
 20
45.1740
 30
0.0000
  0
SEQEND
  8
0
  0
POLYLINE
  8
16
 66
1
 10
0.0000
 20
0.0000
 30
0.0000
 40
0.1270
 41
0.1270
 70
0
  0
VERTEX
  8
16
 10
44.7993
 20
45.2230
 30
0.0000
 42
1.0000
  0
VERTEX
  8
16
 10
44.7187
 20
45.1250
 30
0.0000
  0
SEQEND
  8
0
  0
POLYLINE
  8
16
 66
1
 10
0.0000
 20
0.0000
 30
0.0000
 40
0.1270
 41
0.1270
 70
0
  0
VERTEX
  8
16
 10
46.8527
 20
43.3700
 30
0.0000
 42
1.0000
  0
VERTEX
  8
16
 10
46.9333
 20
43.4680
 30
0.0000
  0
SEQEND
  8
0
  0
POLYLINE
  8
16
 66
1
 10
0.0000
 20
0.0000
 30
0.0000
 40
0.2540
 41
0.2540
 70
0
  0
VERTEX
  8
16
 10
44.7590
 20
45.1740
 30
0.0000
  0
VERTEX
  8
16
 10
42.1700
 20
46.5110
 30
0.0000
  0
SEQEND
  8
0
  0
POLYLINE
  8
16
 66
1
 10
0.0000
 20
0.0000
 30
0.0000
 40
0.1270
 41
0.1270
 70
0
  0
VERTEX
  8
16
 10
42.1991
 20
46.5674
 30
0.0000
 42
1.0000
  0
VERTEX
  8
16
 10
42.1409
 20
46.4546
 30
0.0000
  0
SEQEND
  8
0
  0
POLYLINE
  8
16
 66
1
 10
0.0000
 20
0.0000
 30
0.0000
 40
0.1270
 41
0.1270
 70
0
  0
VERTEX
  8
16
 10
44.7299
 20
45.1176
 30
0.0000
 42
1.0000
  0
VERTEX
  8
16
 10
44.7881
 20
45.2304
 30
0.0000
  0
SEQEND
  8
0
  0
POLYLINE
  8
16
 66
1
 10
0.0000
 20
0.0000
 30
0.0000
 40
0.2540
 41
0.2540
 70
0
  0
VERTEX
  8
16
 10
42.1700
 20
46.5110
 30
0.0000
  0
VERTEX
  8
16
 10
39.2010
 20
47.3860
 30
0.0000
  0
SEQEND
  8
0
  0
POLYLINE
  8
16
 66
1
 10
0.0000
 20
0.0000
 30
0.0000
 40
0.1270
 41
0.1270
 70
0
  0
VERTEX
  8
16
 10
39.2190
 20
47.4469
 30
0.0000
 42
1.0000
  0
VERTEX
  8
16
 10
39.1830
 20
47.3251
 30
0.0000
  0
SEQEND
  8
0
  0
POLYLINE
  8
16
 66
1
 10
0.0000
 20
0.0000
 30
0.0000
 40
0.1270
 41
0.1270
 70
0
  0
VERTEX
  8
16
 10
42.1520
 20
46.4501
 30
0.0000
 42
1.0000
  0
VERTEX
  8
16
 10
42.1880
 20
46.5719
 30
0.0000
  0
SEQEND
  8
0
  0
POLYLINE
  8
16
 66
1
 10
0.0000
 20
0.0000
 30
0.0000
 40
0.2540
 41
0.2540
 70
0
  0
VERTEX
  8
16
 10
39.2010
 20
47.3860
 30
0.0000
  0
VERTEX
  8
16
 10
36.3000
 20
47.6410
 30
0.0000
  0
SEQEND
  8
0
  0
POLYLINE
  8
16
 66
1
 10
0.0000
 20
0.0000
 30
0.0000
 40
0.1270
 41
0.1270
 70
0
  0
VERTEX
  8
16
 10
36.3056
 20
47.7043
 30
0.0000
 42
1.0000
  0
VERTEX
  8
16
 10
36.2944
 20
47.5777
 30
0.0000
  0
SEQEND
  8
0
  0
POLYLINE
  8
16
 66
1
 10
0.0000
 20
0.0000
 30
0.0000
 40
0.1270
 41
0.1270
 70
0
  0
VERTEX
  8
16
 10
39.1954
 20
47.3227
 30
0.0000
 42
1.0000
  0
VERTEX
  8
16
 10
39.2066
 20
47.4493
 30
0.0000
  0
SEQEND
  8
0
  0
POLYLINE
  8
16
 66
1
 10
0.0000
 20
0.0000
 30
0.0000
 40
0.2540
 41
0.2540
 70
0
  0
VERTEX
  8
16
 10
36.3000
 20
47.6410
 30
0.0000
  0
VERTEX
  8
16
 10
33.5350
 20
47.2660
 30
0.0000
  0
SEQEND
  8
0
  0
POLYLINE
  8
16
 66
1
 10
0.0000
 20
0.0000
 30
0.0000
 40
0.1270
 41
0.1270
 70
0
  0
VERTEX
  8
16
 10
33.5265
 20
47.3289
 30
0.0000
 42
1.0000
  0
VERTEX
  8
16
 10
33.5435
 20
47.2031
 30
0.0000
  0
SEQEND
  8
0
  0
POLYLINE
  8
16
 66
1
 10
0.0000
 20
0.0000
 30
0.0000
 40
0.1270
 41
0.1270
 70
0
  0
VERTEX
  8
16
 10
36.3085
 20
47.5781
 30
0.0000
 42
1.0000
  0
VERTEX
  8
16
 10
36.2915
 20
47.7039
 30
0.0000
  0
SEQEND
  8
0
  0
POLYLINE
  8
16
 66
1
 10
0.0000
 20
0.0000
 30
0.0000
 40
0.2540
 41
0.2540
 70
0
  0
VERTEX
  8
16
 10
33.5350
 20
47.2660
 30
0.0000
  0
VERTEX
  8
16
 10
30.9140
 20
46.2760
 30
0.0000
  0
SEQEND
  8
0
  0
POLYLINE
  8
16
 66
1
 10
0.0000
 20
0.0000
 30
0.0000
 40
0.1270
 41
0.1270
 70
0
  0
VERTEX
  8
16
 10
30.8916
 20
46.3354
 30
0.0000
 42
1.0000
  0
VERTEX
  8
16
 10
30.9364
 20
46.2166
 30
0.0000
  0
SEQEND
  8
0
  0
POLYLINE
  8
16
 66
1
 10
0.0000
 20
0.0000
 30
0.0000
 40
0.1270
 41
0.1270
 70
0
  0
VERTEX
  8
16
 10
33.5574
 20
47.2066
 30
0.0000
 42
1.0000
  0
VERTEX
  8
16
 10
33.5126
 20
47.3254
 30
0.0000
  0
SEQEND
  8
0
  0
POLYLINE
  8
16
 66
1
 10
0.0000
 20
0.0000
 30
0.0000
 40
0.2540
 41
0.2540
 70
0
  0
VERTEX
  8
16
 10
30.9140
 20
46.2760
 30
0.0000
  0
VERTEX
  8
16
 10
28.4440
 20
44.6830
 30
0.0000
  0
SEQEND
  8
0
  0
POLYLINE
  8
16
 66
1
 10
0.0000
 20
0.0000
 30
0.0000
 40
0.1270
 41
0.1270
 70
0
  0
VERTEX
  8
16
 10
28.4096
 20
44.7364
 30
0.0000
 42
1.0000
  0
VERTEX
  8
16
 10
28.4784
 20
44.6296
 30
0.0000
  0
SEQEND
  8
0
  0
POLYLINE
  8
16
 66
1
 10
0.0000
 20
0.0000
 30
0.0000
 40
0.1270
 41
0.1270
 70
0
  0
VERTEX
  8
16
 10
30.9484
 20
46.2226
 30
0.0000
 42
1.0000
  0
VERTEX
  8
16
 10
30.8796
 20
46.3294
 30
0.0000
  0
SEQEND
  8
0
  0
POLYLINE
  8
16
 66
1
 10
0.0000
 20
0.0000
 30
0.0000
 40
0.2540
 41
0.2540
 70
0
  0
VERTEX
  8
16
 10
28.4440
 20
44.6830
 30
0.0000
  0
VERTEX
  8
16
 10
27.2680
 20
43.6640
 30
0.0000
  0
SEQEND
  8
0
  0
POLYLINE
  8
16
 66
1
 10
0.0000
 20
0.0000
 30
0.0000
 40
0.1270
 41
0.1270
 70
0
  0
VERTEX
  8
16
 10
27.2264
 20
43.7120
 30
0.0000
 42
1.0000
  0
VERTEX
  8
16
 10
27.3096
 20
43.6160
 30
0.0000
  0
SEQEND
  8
0
  0
POLYLINE
  8
16
 66
1
 10
0.0000
 20
0.0000
 30
0.0000
 40
0.1270
 41
0.1270
 70
0
  0
VERTEX
  8
16
 10
28.4856
 20
44.6350
 30
0.0000
 42
1.0000
  0
VERTEX
  8
16
 10
28.4024
 20
44.7310
 30
0.0000
  0
SEQEND
  8
0
  0
POLYLINE
  8
16
 66
1
 10
0.0000
 20
0.0000
 30
0.0000
 40
0.2540
 41
0.2540
 70
0
  0
VERTEX
  8
16
 10
27.2680
 20
43.6640
 30
0.0000
  0
VERTEX
  8
16
 10
26.9810
 20
43.3870
 30
0.0000
  0
SEQEND
  8
0
  0
POLYLINE
  8
16
 66
1
 10
0.0000
 20
0.0000
 30
0.0000
 40
0.1270
 41
0.1270
 70
0
  0
VERTEX
  8
16
 10
26.9369
 20
43.4327
 30
0.0000
 42
1.0000
  0
VERTEX
  8
16
 10
27.0251
 20
43.3413
 30
0.0000
  0
SEQEND
  8
0
  0
POLYLINE
  8
16
 66
1
 10
0.0000
 20
0.0000
 30
0.0000
 40
0.1270
 41
0.1270
 70
0
  0
VERTEX
  8
16
 10
27.3121
 20
43.6183
 30
0.0000
 42
1.0000
  0
VERTEX
  8
16
 10
27.2239
 20
43.7097
 30
0.0000
  0
SEQEND
  8
0
  0
POLYLINE
  8
16
 66
1
 10
0.0000
 20
0.0000
 30
0.0000
 40
0.2540
 41
0.2540
 70
0
  0
VERTEX
  8
16
 10
26.9810
 20
43.3870
 30
0.0000
  0
VERTEX
  8
16
 10
26.8680
 20
43.2750
 30
0.0000
  0
SEQEND
  8
0
  0
POLYLINE
  8
16
 66
1
 10
0.0000
 20
0.0000
 30
0.0000
 40
0.1270
 41
0.1270
 70
0
  0
VERTEX
  8
16
 10
26.8233
 20
43.3201
 30
0.0000
 42
1.0000
  0
VERTEX
  8
16
 10
26.9127
 20
43.2299
 30
0.0000
  0
SEQEND
  8
0
  0
POLYLINE
  8
16
 66
1
 10
0.0000
 20
0.0000
 30
0.0000
 40
0.1270
 41
0.1270
 70
0
  0
VERTEX
  8
16
 10
27.0257
 20
43.3419
 30
0.0000
 42
1.0000
  0
VERTEX
  8
16
 10
26.9363
 20
43.4321
 30
0.0000
  0
SEQEND
  8
0
  0
POLYLINE
  8
16
 66
1
 10
0.0000
 20
0.0000
 30
0.0000
 40
0.2540
 41
0.2540
 70
0
  0
VERTEX
  8
16
 10
26.8680
 20
43.2750
 30
0.0000
  0
VERTEX
  8
16
 10
26.8160
 20
43.2230
 30
0.0000
  0
SEQEND
  8
0
  0
POLYLINE
  8
16
 66
1
 10
0.0000
 20
0.0000
 30
0.0000
 40
0.1270
 41
0.1270
 70
0
  0
VERTEX
  8
16
 10
26.7711
 20
43.2679
 30
0.0000
 42
1.0000
  0
VERTEX
  8
16
 10
26.8609
 20
43.1781
 30
0.0000
  0
SEQEND
  8
0
  0
POLYLINE
  8
16
 66
1
 10
0.0000
 20
0.0000
 30
0.0000
 40
0.1270
 41
0.1270
 70
0
  0
VERTEX
  8
16
 10
26.9129
 20
43.2301
 30
0.0000
 42
1.0000
  0
VERTEX
  8
16
 10
26.8231
 20
43.3199
 30
0.0000
  0
SEQEND
  8
0
  0
POLYLINE
  8
16
 66
1
 10
0.0000
 20
0.0000
 30
0.0000
 40
0.2540
 41
0.2540
 70
0
  0
VERTEX
  8
16
 10
26.8160
 20
43.2230
 30
0.0000
  0
VERTEX
  8
16
 10
26.6130
 20
43.0130
 30
0.0000
  0
SEQEND
  8
0
  0
POLYLINE
  8
16
 66
1
 10
0.0000
 20
0.0000
 30
0.0000
 40
0.1270
 41
0.1270
 70
0
  0
VERTEX
  8
16
 10
26.5673
 20
43.0571
 30
0.0000
 42
1.0000
  0
VERTEX
  8
16
 10
26.6587
 20
42.9689
 30
0.0000
  0
SEQEND
  8
0
  0
POLYLINE
  8
16
 66
1
 10
0.0000
 20
0.0000
 30
0.0000
 40
0.1270
 41
0.1270
 70
0
  0
VERTEX
  8
16
 10
26.8617
 20
43.1789
 30
0.0000
 42
1.0000
  0
VERTEX
  8
16
 10
26.7703
 20
43.2671
 30
0.0000
  0
SEQEND
  8
0
  0
POLYLINE
  8
16
 66
1
 10
0.0000
 20
0.0000
 30
0.0000
 40
0.2540
 41
0.2540
 70
0
  0
VERTEX
  8
16
 10
26.6130
 20
43.0130
 30
0.0000
  0
VERTEX
  8
16
 10
25.9190
 20
42.2600
 30
0.0000
  0
SEQEND
  8
0
  0
POLYLINE
  8
16
 66
1
 10
0.0000
 20
0.0000
 30
0.0000
 40
0.1270
 41
0.1270
 70
0
  0
VERTEX
  8
16
 10
25.8723
 20
42.3030
 30
0.0000
 42
1.0000
  0
VERTEX
  8
16
 10
25.9657
 20
42.2170
 30
0.0000
  0
SEQEND
  8
0
  0
POLYLINE
  8
16
 66
1
 10
0.0000
 20
0.0000
 30
0.0000
 40
0.1270
 41
0.1270
 70
0
  0
VERTEX
  8
16
 10
26.6597
 20
42.9700
 30
0.0000
 42
1.0000
  0
VERTEX
  8
16
 10
26.5663
 20
43.0560
 30
0.0000
  0
SEQEND
  8
0
  0
POLYLINE
  8
16
 66
1
 10
0.0000
 20
0.0000
 30
0.0000
 40
0.2540
 41
0.2540
 70
0
  0
VERTEX
  8
16
 10
25.9190
 20
42.2600
 30
0.0000
  0
VERTEX
  8
16
 10
24.6520
 20
43.3790
 30
0.0000
  0
SEQEND
  8
0
  0
POLYLINE
  8
16
 66
1
 10
0.0000
 20
0.0000
 30
0.0000
 40
0.1270
 41
0.1270
 70
0
  0
VERTEX
  8
16
 10
24.6940
 20
43.4266
 30
0.0000
 42
1.0000
  0
VERTEX
  8
16
 10
24.6100
 20
43.3314
 30
0.0000
  0
SEQEND
  8
0
  0
POLYLINE
  8
16
 66
1
 10
0.0000
 20
0.0000
 30
0.0000
 40
0.1270
 41
0.1270
 70
0
  0
VERTEX
  8
16
 10
25.8770
 20
42.2124
 30
0.0000
 42
1.0000
  0
VERTEX
  8
16
 10
25.9610
 20
42.3076
 30
0.0000
  0
SEQEND
  8
0
  0
POLYLINE
  8
16
 66
1
 10
0.0000
 20
0.0000
 30
0.0000
 40
0.2540
 41
0.2540
 70
0
  0
VERTEX
  8
16
 10
24.6520
 20
43.3790
 30
0.0000
  0
VERTEX
  8
16
 10
24.0530
 20
43.9210
 30
0.0000
  0
SEQEND
  8
0
  0
POLYLINE
  8
16
 66
1
 10
0.0000
 20
0.0000
 30
0.0000
 40
0.1270
 41
0.1270
 70
0
  0
VERTEX
  8
16
 10
24.0956
 20
43.9681
 30
0.0000
 42
1.0000
  0
VERTEX
  8
16
 10
24.0104
 20
43.8739
 30
0.0000
  0
SEQEND
  8
0
  0
POLYLINE
  8
16
 66
1
 10
0.0000
 20
0.0000
 30
0.0000
 40
0.1270
 41
0.1270
 70
0
  0
VERTEX
  8
16
 10
24.6094
 20
43.3319
 30
0.0000
 42
1.0000
  0
VERTEX
  8
16
 10
24.6946
 20
43.4261
 30
0.0000
  0
SEQEND
  8
0
  0
POLYLINE
  8
16
 66
1
 10
0.0000
 20
0.0000
 30
0.0000
 40
0.2540
 41
0.2540
 70
0
  0
VERTEX
  8
16
 10
24.0530
 20
43.9210
 30
0.0000
  0
VERTEX
  8
16
 10
23.9420
 20
44.0230
 30
0.0000
  0
SEQEND
  8
0
  0
POLYLINE
  8
16
 66
1
 10
0.0000
 20
0.0000
 30
0.0000
 40
0.1270
 41
0.1270
 70
0
  0
VERTEX
  8
16
 10
23.9850
 20
44.0698
 30
0.0000
 42
1.0000
  0
VERTEX
  8
16
 10
23.8990
 20
43.9762
 30
0.0000
  0
SEQEND
  8
0
  0
POLYLINE
  8
16
 66
1
 10
0.0000
 20
0.0000
 30
0.0000
 40
0.1270
 41
0.1270
 70
0
  0
VERTEX
  8
16
 10
24.0100
 20
43.8742
 30
0.0000
 42
1.0000
  0
VERTEX
  8
16
 10
24.0960
 20
43.9678
 30
0.0000
  0
SEQEND
  8
0
  0
POLYLINE
  8
16
 66
1
 10
0.0000
 20
0.0000
 30
0.0000
 40
0.2540
 41
0.2540
 70
0
  0
VERTEX
  8
16
 10
23.9420
 20
44.0230
 30
0.0000
  0
VERTEX
  8
16
 10
23.5880
 20
44.3430
 30
0.0000
  0
SEQEND
  8
0
  0
POLYLINE
  8
16
 66
1
 10
0.0000
 20
0.0000
 30
0.0000
 40
0.1270
 41
0.1270
 70
0
  0
VERTEX
  8
16
 10
23.6306
 20
44.3901
 30
0.0000
 42
1.0000
  0
VERTEX
  8
16
 10
23.5454
 20
44.2959
 30
0.0000
  0
SEQEND
  8
0
  0
POLYLINE
  8
16
 66
1
 10
0.0000
 20
0.0000
 30
0.0000
 40
0.1270
 41
0.1270
 70
0
  0
VERTEX
  8
16
 10
23.8994
 20
43.9759
 30
0.0000
 42
1.0000
  0
VERTEX
  8
16
 10
23.9846
 20
44.0701
 30
0.0000
  0
SEQEND
  8
0
  0
POLYLINE
  8
16
 66
1
 10
0.0000
 20
0.0000
 30
0.0000
 40
0.2540
 41
0.2540
 70
0
  0
VERTEX
  8
16
 10
23.5880
 20
44.3430
 30
0.0000
  0
VERTEX
  8
16
 10
21.7540
 20
45.6830
 30
0.0000
  0
SEQEND
  8
0
  0
POLYLINE
  8
16
 66
1
 10
0.0000
 20
0.0000
 30
0.0000
 40
0.1270
 41
0.1270
 70
0
  0
VERTEX
  8
16
 10
21.7915
 20
45.7343
 30
0.0000
 42
1.0000
  0
VERTEX
  8
16
 10
21.7165
 20
45.6317
 30
0.0000
  0
SEQEND
  8
0
  0
POLYLINE
  8
16
 66
1
 10
0.0000
 20
0.0000
 30
0.0000
 40
0.1270
 41
0.1270
 70
0
  0
VERTEX
  8
16
 10
23.5505
 20
44.2917
 30
0.0000
 42
1.0000
  0
VERTEX
  8
16
 10
23.6255
 20
44.3943
 30
0.0000
  0
SEQEND
  8
0
  0
POLYLINE
  8
16
 66
1
 10
0.0000
 20
0.0000
 30
0.0000
 40
0.2540
 41
0.2540
 70
0
  0
VERTEX
  8
16
 10
21.7540
 20
45.6830
 30
0.0000
  0
VERTEX
  8
16
 10
19.7830
 20
46.6600
 30
0.0000
  0
SEQEND
  8
0
  0
POLYLINE
  8
16
 66
1
 10
0.0000
 20
0.0000
 30
0.0000
 40
0.1270
 41
0.1270
 70
0
  0
VERTEX
  8
16
 10
19.8112
 20
46.7169
 30
0.0000
 42
1.0000
  0
VERTEX
  8
16
 10
19.7548
 20
46.6031
 30
0.0000
  0
SEQEND
  8
0
  0
POLYLINE
  8
16
 66
1
 10
0.0000
 20
0.0000
 30
0.0000
 40
0.1270
 41
0.1270
 70
0
  0
VERTEX
  8
16
 10
21.7258
 20
45.6261
 30
0.0000
 42
1.0000
  0
VERTEX
  8
16
 10
21.7822
 20
45.7399
 30
0.0000
  0
SEQEND
  8
0
  0
POLYLINE
  8
16
 66
1
 10
0.0000
 20
0.0000
 30
0.0000
 40
0.2540
 41
0.2540
 70
0
  0
VERTEX
  8
16
 10
19.7830
 20
46.6600
 30
0.0000
  0
VERTEX
  8
16
 10
17.7180
 20
47.2870
 30
0.0000
  0
SEQEND
  8
0
  0
POLYLINE
  8
16
 66
1
 10
0.0000
 20
0.0000
 30
0.0000
 40
0.1270
 41
0.1270
 70
0
  0
VERTEX
  8
16
 10
17.7364
 20
47.3478
 30
0.0000
 42
1.0000
  0
VERTEX
  8
16
 10
17.6996
 20
47.2262
 30
0.0000
  0
SEQEND
  8
0
  0
POLYLINE
  8
16
 66
1
 10
0.0000
 20
0.0000
 30
0.0000
 40
0.1270
 41
0.1270
 70
0
  0
VERTEX
  8
16
 10
19.7646
 20
46.5992
 30
0.0000
 42
1.0000
  0
VERTEX
  8
16
 10
19.8014
 20
46.7208
 30
0.0000
  0
SEQEND
  8
0
  0
POLYLINE
  8
16
 66
1
 10
0.0000
 20
0.0000
 30
0.0000
 40
0.2540
 41
0.2540
 70
0
  0
VERTEX
  8
16
 10
17.7180
 20
47.2870
 30
0.0000
  0
VERTEX
  8
16
 10
15.6010
 20
47.5750
 30
0.0000
  0
SEQEND
  8
0
  0
POLYLINE
  8
16
 66
1
 10
0.0000
 20
0.0000
 30
0.0000
 40
0.1270
 41
0.1270
 70
0
  0
VERTEX
  8
16
 10
15.6096
 20
47.6379
 30
0.0000
 42
1.0000
  0
VERTEX
  8
16
 10
15.5924
 20
47.5121
 30
0.0000
  0
SEQEND
  8
0
  0
POLYLINE
  8
16
 66
1
 10
0.0000
 20
0.0000
 30
0.0000
 40
0.1270
 41
0.1270
 70
0
  0
VERTEX
  8
16
 10
17.7094
 20
47.2241
 30
0.0000
 42
1.0000
  0
VERTEX
  8
16
 10
17.7266
 20
47.3499
 30
0.0000
  0
SEQEND
  8
0
  0
POLYLINE
  8
16
 66
1
 10
0.0000
 20
0.0000
 30
0.0000
 40
0.2540
 41
0.2540
 70
0
  0
VERTEX
  8
16
 10
15.6010
 20
47.5750
 30
0.0000
  0
VERTEX
  8
16
 10
13.4750
 20
47.5350
 30
0.0000
  0
SEQEND
  8
0
  0
POLYLINE
  8
16
 66
1
 10
0.0000
 20
0.0000
 30
0.0000
 40
0.1270
 41
0.1270
 70
0
  0
VERTEX
  8
16
 10
13.4738
 20
47.5985
 30
0.0000
 42
1.0000
  0
VERTEX
  8
16
 10
13.4762
 20
47.4715
 30
0.0000
  0
SEQEND
  8
0
  0
POLYLINE
  8
16
 66
1
 10
0.0000
 20
0.0000
 30
0.0000
 40
0.1270
 41
0.1270
 70
0
  0
VERTEX
  8
16
 10
15.6022
 20
47.5115
 30
0.0000
 42
1.0000
  0
VERTEX
  8
16
 10
15.5998
 20
47.6385
 30
0.0000
  0
SEQEND
  8
0
  0
POLYLINE
  8
16
 66
1
 10
0.0000
 20
0.0000
 30
0.0000
 40
0.2540
 41
0.2540
 70
0
  0
VERTEX
  8
16
 10
13.4750
 20
47.5350
 30
0.0000
  0
VERTEX
  8
16
 10
11.3850
 20
47.1790
 30
0.0000
  0
SEQEND
  8
0
  0
POLYLINE
  8
16
 66
1
 10
0.0000
 20
0.0000
 30
0.0000
 40
0.1270
 41
0.1270
 70
0
  0
VERTEX
  8
16
 10
11.3743
 20
47.2416
 30
0.0000
 42
1.0000
  0
VERTEX
  8
16
 10
11.3957
 20
47.1164
 30
0.0000
  0
SEQEND
  8
0
  0
POLYLINE
  8
16
 66
1
 10
0.0000
 20
0.0000
 30
0.0000
 40
0.1270
 41
0.1270
 70
0
  0
VERTEX
  8
16
 10
13.4857
 20
47.4724
 30
0.0000
 42
1.0000
  0
VERTEX
  8
16
 10
13.4643
 20
47.5976
 30
0.0000
  0
SEQEND
  8
0
  0
POLYLINE
  8
16
 66
1
 10
0.0000
 20
0.0000
 30
0.0000
 40
0.2540
 41
0.2540
 70
0
  0
VERTEX
  8
16
 10
11.3850
 20
47.1790
 30
0.0000
  0
VERTEX
  8
16
 10
9.3720
 20
46.5190
 30
0.0000
  0
SEQEND
  8
0
  0
POLYLINE
  8
16
 66
1
 10
0.0000
 20
0.0000
 30
0.0000
 40
0.1270
 41
0.1270
 70
0
  0
VERTEX
  8
16
 10
9.3522
 20
46.5793
 30
0.0000
 42
1.0000
  0
VERTEX
  8
16
 10
9.3918
 20
46.4587
 30
0.0000
  0
SEQEND
  8
0
  0
POLYLINE
  8
16
 66
1
 10
0.0000
 20
0.0000
 30
0.0000
 40
0.1270
 41
0.1270
 70
0
  0
VERTEX
  8
16
 10
11.4048
 20
47.1187
 30
0.0000
 42
1.0000
  0
VERTEX
  8
16
 10
11.3652
 20
47.2393
 30
0.0000
  0
SEQEND
  8
0
  0
POLYLINE
  8
16
 66
1
 10
0.0000
 20
0.0000
 30
0.0000
 40
0.2540
 41
0.2540
 70
0
  0
VERTEX
  8
16
 10
9.3720
 20
46.5190
 30
0.0000
  0
VERTEX
  8
16
 10
7.4800
 20
45.5660
 30
0.0000
  0
SEQEND
  8
0
  0
POLYLINE
  8
16
 66
1
 10
0.0000
 20
0.0000
 30
0.0000
 40
0.1270
 41
0.1270
 70
0
  0
VERTEX
  8
16
 10
7.4514
 20
45.6227
 30
0.0000
 42
1.0000
  0
VERTEX
  8
16
 10
7.5086
 20
45.5093
 30
0.0000
  0
SEQEND
  8
0
  0
POLYLINE
  8
16
 66
1
 10
0.0000
 20
0.0000
 30
0.0000
 40
0.1270
 41
0.1270
 70
0
  0
VERTEX
  8
16
 10
9.4006
 20
46.4623
 30
0.0000
 42
1.0000
  0
VERTEX
  8
16
 10
9.3434
 20
46.5757
 30
0.0000
  0
SEQEND
  8
0
  0
POLYLINE
  8
16
 66
1
 10
0.0000
 20
0.0000
 30
0.0000
 40
0.2540
 41
0.2540
 70
0
  0
VERTEX
  8
16
 10
7.4800
 20
45.5660
 30
0.0000
  0
VERTEX
  8
16
 10
5.7520
 20
44.3320
 30
0.0000
  0
SEQEND
  8
0
  0
POLYLINE
  8
16
 66
1
 10
0.0000
 20
0.0000
 30
0.0000
 40
0.1270
 41
0.1270
 70
0
  0
VERTEX
  8
16
 10
5.7151
 20
44.3837
 30
0.0000
 42
1.0000
  0
VERTEX
  8
16
 10
5.7889
 20
44.2803
 30
0.0000
  0
SEQEND
  8
0
  0
POLYLINE
  8
16
 66
1
 10
0.0000
 20
0.0000
 30
0.0000
 40
0.1270
 41
0.1270
 70
0
  0
VERTEX
  8
16
 10
7.5169
 20
45.5143
 30
0.0000
 42
1.0000
  0
VERTEX
  8
16
 10
7.4431
 20
45.6177
 30
0.0000
  0
SEQEND
  8
0
  0
POLYLINE
  8
16
 66
1
 10
0.0000
 20
0.0000
 30
0.0000
 40
0.2540
 41
0.2540
 70
0
  0
VERTEX
  8
16
 10
5.7520
 20
44.3320
 30
0.0000
  0
VERTEX
  8
16
 10
4.2310
 20
42.8290
 30
0.0000
  0
SEQEND
  8
0
  0
POLYLINE
  8
16
 66
1
 10
0.0000
 20
0.0000
 30
0.0000
 40
0.1270
 41
0.1270
 70
0
  0
VERTEX
  8
16
 10
4.1864
 20
42.8742
 30
0.0000
 42
1.0000
  0
VERTEX
  8
16
 10
4.2756
 20
42.7838
 30
0.0000
  0
SEQEND
  8
0
  0
POLYLINE
  8
16
 66
1
 10
0.0000
 20
0.0000
 30
0.0000
 40
0.1270
 41
0.1270
 70
0
  0
VERTEX
  8
16
 10
5.7966
 20
44.2868
 30
0.0000
 42
1.0000
  0
VERTEX
  8
16
 10
5.7074
 20
44.3772
 30
0.0000
  0
SEQEND
  8
0
  0
POLYLINE
  8
16
 66
1
 10
0.0000
 20
0.0000
 30
0.0000
 40
0.2540
 41
0.2540
 70
0
  0
VERTEX
  8
16
 10
4.2310
 20
42.8290
 30
0.0000
  0
VERTEX
  8
16
 10
2.9600
 20
41.0690
 30
0.0000
  0
SEQEND
  8
0
  0
POLYLINE
  8
16
 66
1
 10
0.0000
 20
0.0000
 30
0.0000
 40
0.1270
 41
0.1270
 70
0
  0
VERTEX
  8
16
 10
2.9085
 20
41.1062
 30
0.0000
 42
1.0000
  0
VERTEX
  8
16
 10
3.0115
 20
41.0318
 30
0.0000
  0
SEQEND
  8
0
  0
POLYLINE
  8
16
 66
1
 10
0.0000
 20
0.0000
 30
0.0000
 40
0.1270
 41
0.1270
 70
0
  0
VERTEX
  8
16
 10
4.2825
 20
42.7918
 30
0.0000
 42
1.0000
  0
VERTEX
  8
16
 10
4.1795
 20
42.8662
 30
0.0000
  0
SEQEND
  8
0
  0
POLYLINE
  8
16
 66
1
 10
0.0000
 20
0.0000
 30
0.0000
 40
0.2540
 41
0.2540
 70
0
  0
VERTEX
  8
16
 10
2.9600
 20
41.0690
 30
0.0000
  0
VERTEX
  8
16
 10
1.9810
 20
39.0620
 30
0.0000
  0
SEQEND
  8
0
  0
POLYLINE
  8
16
 66
1
 10
0.0000
 20
0.0000
 30
0.0000
 40
0.1270
 41
0.1270
 70
0
  0
VERTEX
  8
16
 10
1.9239
 20
39.0898
 30
0.0000
 42
1.0000
  0
VERTEX
  8
16
 10
2.0381
 20
39.0342
 30
0.0000
  0
SEQEND
  8
0
  0
POLYLINE
  8
16
 66
1
 10
0.0000
 20
0.0000
 30
0.0000
 40
0.1270
 41
0.1270
 70
0
  0
VERTEX
  8
16
 10
3.0171
 20
41.0412
 30
0.0000
 42
1.0000
  0
VERTEX
  8
16
 10
2.9029
 20
41.0968
 30
0.0000
  0
SEQEND
  8
0
  0
POLYLINE
  8
16
 66
1
 10
0.0000
 20
0.0000
 30
0.0000
 40
0.2540
 41
0.2540
 70
0
  0
VERTEX
  8
16
 10
1.9810
 20
39.0620
 30
0.0000
  0
VERTEX
  8
16
 10
1.6150
 20
37.9700
 30
0.0000
  0
SEQEND
  8
0
  0
POLYLINE
  8
16
 66
1
 10
0.0000
 20
0.0000
 30
0.0000
 40
0.1270
 41
0.1270
 70
0
  0
VERTEX
  8
16
 10
1.5548
 20
37.9902
 30
0.0000
 42
1.0000
  0
VERTEX
  8
16
 10
1.6752
 20
37.9498
 30
0.0000
  0
SEQEND
  8
0
  0
POLYLINE
  8
16
 66
1
 10
0.0000
 20
0.0000
 30
0.0000
 40
0.1270
 41
0.1270
 70
0
  0
VERTEX
  8
16
 10
2.0412
 20
39.0418
 30
0.0000
 42
1.0000
  0
VERTEX
  8
16
 10
1.9208
 20
39.0822
 30
0.0000
  0
SEQEND
  8
0
  0
POLYLINE
  8
16
 66
1
 10
0.0000
 20
0.0000
 30
0.0000
 40
0.2540
 41
0.2540
 70
0
  0
VERTEX
  8
16
 10
1.6150
 20
37.9700
 30
0.0000
  0
VERTEX
  8
16
 10
1.4160
 20
37.2050
 30
0.0000
  0
SEQEND
  8
0
  0
POLYLINE
  8
16
 66
1
 10
0.0000
 20
0.0000
 30
0.0000
 40
0.1270
 41
0.1270
 70
0
  0
VERTEX
  8
16
 10
1.3545
 20
37.2210
 30
0.0000
 42
1.0000
  0
VERTEX
  8
16
 10
1.4775
 20
37.1890
 30
0.0000
  0
SEQEND
  8
0
  0
POLYLINE
  8
16
 66
1
 10
0.0000
 20
0.0000
 30
0.0000
 40
0.1270
 41
0.1270
 70
0
  0
VERTEX
  8
16
 10
1.6765
 20
37.9540
 30
0.0000
 42
1.0000
  0
VERTEX
  8
16
 10
1.5535
 20
37.9860
 30
0.0000
  0
SEQEND
  8
0
  0
POLYLINE
  8
16
 66
1
 10
0.0000
 20
0.0000
 30
0.0000
 40
0.4064
 41
0.4064
 70
0
  0
VERTEX
  8
16
 10
25.4000
 20
22.8600
 30
0.0000
  0
VERTEX
  8
16
 10
25.4000
 20
27.9400
 30
0.0000
  0
SEQEND
  8
0
  0
POLYLINE
  8
16
 66
1
 10
0.0000
 20
0.0000
 30
0.0000
 40
0.2032
 41
0.2032
 70
0
  0
VERTEX
  8
16
 10
25.5016
 20
27.9400
 30
0.0000
 42
1.0000
  0
VERTEX
  8
16
 10
25.2984
 20
27.9400
 30
0.0000
  0
SEQEND
  8
0
  0
POLYLINE
  8
16
 66
1
 10
0.0000
 20
0.0000
 30
0.0000
 40
0.2032
 41
0.2032
 70
0
  0
VERTEX
  8
16
 10
25.2984
 20
22.8600
 30
0.0000
 42
1.0000
  0
VERTEX
  8
16
 10
25.5016
 20
22.8600
 30
0.0000
  0
SEQEND
  8
0
  0
INSERT
  8
18
  2
ROUNDV
 10
25.4000
 20
22.8600
 30
0.0000
 41
1.5494
 42
1.5494
 43
1.0000
 50
0.0000
  0
INSERT
  8
18
  2
ROUNDV
 10
25.4000
 20
22.8600
 30
0.0000
 41
1.5494
 42
1.5494
 43
1.0000
 50
0.0000
  0
POLYLINE
  8
16
 66
1
 10
0.0000
 20
0.0000
 30
0.0000
 40
0.4064
 41
0.4064
 70
0
  0
VERTEX
  8
16
 10
33.6000
 20
27.9400
 30
0.0000
  0
VERTEX
  8
16
 10
38.1000
 20
27.9400
 30
0.0000
  0
SEQEND
  8
0
  0
POLYLINE
  8
16
 66
1
 10
0.0000
 20
0.0000
 30
0.0000
 40
0.2032
 41
0.2032
 70
0
  0
VERTEX
  8
16
 10
38.1000
 20
27.8384
 30
0.0000
 42
1.0000
  0
VERTEX
  8
16
 10
38.1000
 20
28.0416
 30
0.0000
  0
SEQEND
  8
0
  0
POLYLINE
  8
16
 66
1
 10
0.0000
 20
0.0000
 30
0.0000
 40
0.2032
 41
0.2032
 70
0
  0
VERTEX
  8
16
 10
33.6000
 20
28.0416
 30
0.0000
 42
1.0000
  0
VERTEX
  8
16
 10
33.6000
 20
27.8384
 30
0.0000
  0
SEQEND
  8
0
  0
POLYLINE
  8
16
 66
1
 10
0.0000
 20
0.0000
 30
0.0000
 40
0.4064
 41
0.4064
 70
0
  0
VERTEX
  8
16
 10
38.1000
 20
27.9400
 30
0.0000
  0
VERTEX
  8
16
 10
41.8700
 20
31.7100
 30
0.0000
  0
SEQEND
  8
0
  0
POLYLINE
  8
16
 66
1
 10
0.0000
 20
0.0000
 30
0.0000
 40
0.2032
 41
0.2032
 70
0
  0
VERTEX
  8
16
 10
41.9418
 20
31.6382
 30
0.0000
 42
1.0000
  0
VERTEX
  8
16
 10
41.7982
 20
31.7818
 30
0.0000
  0
SEQEND
  8
0
  0
POLYLINE
  8
16
 66
1
 10
0.0000
 20
0.0000
 30
0.0000
 40
0.2032
 41
0.2032
 70
0
  0
VERTEX
  8
16
 10
38.0282
 20
28.0118
 30
0.0000
 42
1.0000
  0
VERTEX
  8
16
 10
38.1718
 20
27.8682
 30
0.0000
  0
SEQEND
  8
0
  0
POLYLINE
  8
16
 66
1
 10
0.0000
 20
0.0000
 30
0.0000
 40
0.4064
 41
0.4064
 70
0
  0
VERTEX
  8
16
 10
41.8700
 20
31.7100
 30
0.0000
  0
VERTEX
  8
16
 10
41.8700
 20
36.6200
 30
0.0000
  0
SEQEND
  8
0
  0
POLYLINE
  8
16
 66
1
 10
0.0000
 20
0.0000
 30
0.0000
 40
0.2032
 41
0.2032
 70
0
  0
VERTEX
  8
16
 10
41.9716
 20
36.6200
 30
0.0000
 42
1.0000
  0
VERTEX
  8
16
 10
41.7684
 20
36.6200
 30
0.0000
  0
SEQEND
  8
0
  0
POLYLINE
  8
16
 66
1
 10
0.0000
 20
0.0000
 30
0.0000
 40
0.2032
 41
0.2032
 70
0
  0
VERTEX
  8
16
 10
41.7684
 20
31.7100
 30
0.0000
 42
1.0000
  0
VERTEX
  8
16
 10
41.9716
 20
31.7100
 30
0.0000
  0
SEQEND
  8
0
  0
POLYLINE
  8
16
 66
1
 10
0.0000
 20
0.0000
 30
0.0000
 40
0.4064
 41
0.4064
 70
0
  0
VERTEX
  8
16
 10
38.0502
 20
31.7002
 30
0.0000
  0
VERTEX
  8
16
 10
39.3700
 20
33.0200
 30
0.0000
  0
SEQEND
  8
0
  0
POLYLINE
  8
16
 66
1
 10
0.0000
 20
0.0000
 30
0.0000
 40
0.2032
 41
0.2032
 70
0
  0
VERTEX
  8
16
 10
39.4418
 20
32.9482
 30
0.0000
 42
1.0000
  0
VERTEX
  8
16
 10
39.2982
 20
33.0918
 30
0.0000
  0
SEQEND
  8
0
  0
POLYLINE
  8
16
 66
1
 10
0.0000
 20
0.0000
 30
0.0000
 40
0.2032
 41
0.2032
 70
0
  0
VERTEX
  8
16
 10
37.9784
 20
31.7721
 30
0.0000
 42
1.0000
  0
VERTEX
  8
16
 10
38.1221
 20
31.6284
 30
0.0000
  0
SEQEND
  8
0
  0
POLYLINE
  8
16
 66
1
 10
0.0000
 20
0.0000
 30
0.0000
 40
0.4064
 41
0.4064
 70
0
  0
VERTEX
  8
16
 10
38.0502
 20
31.7002
 30
0.0000
  0
VERTEX
  8
16
 10
27.9898
 20
31.7002
 30
0.0000
  0
SEQEND
  8
0
  0
POLYLINE
  8
16
 66
1
 10
0.0000
 20
0.0000
 30
0.0000
 40
0.2032
 41
0.2032
 70
0
  0
VERTEX
  8
16
 10
27.9898
 20
31.8018
 30
0.0000
 42
1.0000
  0
VERTEX
  8
16
 10
27.9898
 20
31.5986
 30
0.0000
  0
SEQEND
  8
0
  0
POLYLINE
  8
16
 66
1
 10
0.0000
 20
0.0000
 30
0.0000
 40
0.2032
 41
0.2032
 70
0
  0
VERTEX
  8
16
 10
38.0502
 20
31.5986
 30
0.0000
 42
1.0000
  0
VERTEX
  8
16
 10
38.0502
 20
31.8018
 30
0.0000
  0
SEQEND
  8
0
  0
POLYLINE
  8
16
 66
1
 10
0.0000
 20
0.0000
 30
0.0000
 40
0.4064
 41
0.4064
 70
0
  0
VERTEX
  8
16
 10
39.3700
 20
33.0200
 30
0.0000
  0
VERTEX
  8
16
 10
39.3700
 20
36.6200
 30
0.0000
  0
SEQEND
  8
0
  0
POLYLINE
  8
16
 66
1
 10
0.0000
 20
0.0000
 30
0.0000
 40
0.2032
 41
0.2032
 70
0
  0
VERTEX
  8
16
 10
39.4716
 20
36.6200
 30
0.0000
 42
1.0000
  0
VERTEX
  8
16
 10
39.2684
 20
36.6200
 30
0.0000
  0
SEQEND
  8
0
  0
POLYLINE
  8
16
 66
1
 10
0.0000
 20
0.0000
 30
0.0000
 40
0.2032
 41
0.2032
 70
0
  0
VERTEX
  8
16
 10
39.2684
 20
33.0200
 30
0.0000
 42
1.0000
  0
VERTEX
  8
16
 10
39.4716
 20
33.0200
 30
0.0000
  0
SEQEND
  8
0
  0
INSERT
  8
18
  2
ROUNDV
 10
27.9898
 20
31.7002
 30
0.0000
 41
1.5494
 42
1.5494
 43
1.0000
 50
0.0000
  0
INSERT
  8
18
  2
ROUNDV
 10
27.9898
 20
31.7002
 30
0.0000
 41
1.5494
 42
1.5494
 43
1.0000
 50
0.0000
  0
ENDSEC
  0
EOF
