<svg id="Layer_1" data-name="Layer 1" xmlns="http://www.w3.org/2000/svg" width="50mm" height="46.77mm" viewBox="0 0 141.73 132.57"><defs><style>.cls-1{fill:#fff;}</style></defs><title>Beating Heart</title><path class="cls-1" d="M69,137.15H0V4.58H141.73V137.15h-69c7.57-12.25,17.63-22.28,28.1-32,9.53-8.86,19.26-17.58,28-27.21,9.79-10.82,14.07-24.2,12-38.74C138.5,23.7,129.49,12.83,114.57,7.92,99.2,2.86,85.48,6.54,74,18c-1,1-2,2.17-2.74,2.93-2-1.78-3.85-3.36-5.62-5C44.88-3.41,9.52,6.37,2.16,33.76c-4.4,16.38-.1,31.2,10.05,44.45,7.8,10.17,17.86,18.07,27.37,26.5C50.57,114.46,61,124.72,69,137.15Z" transform="translate(0 -4.58)"/><path d="M69,137.15c-8-12.43-18.46-22.69-29.45-32.44C30.07,96.28,20,88.38,12.21,78.21,2.06,65-2.24,50.14,2.16,33.76,9.52,6.37,44.88-3.41,65.61,15.94c1.77,1.66,3.62,3.24,5.62,5,.71-.76,1.69-1.88,2.74-2.93C85.48,6.54,99.2,2.86,114.57,7.92c14.92,4.91,23.93,15.78,26.18,31.27,2.1,14.54-2.18,27.92-12,38.74-8.72,9.63-18.45,18.35-28,27.21-10.47,9.73-20.53,19.76-28.1,32Z" transform="translate(0 -4.58)"/></svg>